/* XPM */
static char *d0f84d41cea346239f06396156f8ab36u4m9CZpEcoSfFdSw[] = {
/* columns rows colors chars-per-pixel */
"64 64 149 2 ",
"   c black",
".  c #060A0A",
"X  c #0D1314",
"o  c gray11",
"O  c #1D2B2D",
"+  c #1F3032",
"@  c #223234",
"#  c #273A3C",
"$  c #383837",
"%  c #3A3A3A",
"&  c #171C55",
"*  c #1A1F57",
"=  c #1B1F58",
"-  c #1B2057",
";  c #1C2159",
":  c #21265D",
">  c #23295E",
",  c #2A2E5F",
"<  c #202760",
"1  c #242C62",
"2  c #2A2F63",
"3  c #263166",
"4  c #2B3364",
"5  c #283468",
"6  c #303566",
"7  c #383C64",
"8  c #353A6B",
"9  c #383D6C",
"0  c #303B76",
"q  c #333F7A",
"w  c #593C6C",
"e  c #443F7A",
"r  c #385255",
"t  c #3C416F",
"y  c #334279",
"u  c #39457F",
"i  c #404469",
"p  c #45496A",
"a  c #494C6C",
"s  c #4D506E",
"d  c #434774",
"f  c #464A76",
"g  c #484C77",
"h  c #4A4E79",
"j  c #4B507C",
"k  c #446469",
"l  c #47686C",
"z  c #4A6D71",
"x  c #6B6D7B",
"c  c #6F717C",
"v  c #73747E",
"b  c #797A7D",
"n  c #8C374A",
"m  c #933544",
"M  c #85495E",
"N  c #333F84",
"B  c #354383",
"V  c #394582",
"C  c #3B4A85",
"Z  c #3C4D8A",
"A  c #395180",
"S  c #3E528D",
"D  c #414A85",
"F  c #41548E",
"G  c #465E8F",
"H  c #595C84",
"J  c #425492",
"K  c #455995",
"L  c #475A99",
"P  c #485C9A",
"I  c #597D81",
"U  c #4F6D94",
"Y  c #4B639D",
"T  c #4E699F",
"R  c #506A9F",
"E  c #4F739F",
"W  c #696D8F",
"Q  c #7D7786",
"!  c #777880",
"~  c #7C7D82",
"^  c #727698",
"/  c #7A7D9C",
"(  c #4D67A0",
")  c #4F70A0",
"_  c #5174A5",
"`  c #547AA5",
"'  c #557BA8",
"]  c #837B85",
"[  c #5F8B94",
"{  c #7A8B8D",
"}  c #618E95",
"|  c #639297",
" . c #639298",
".. c #67989E",
"X. c #68999F",
"o. c #5D83A2",
"O. c #5681A9",
"+. c #5A86AD",
"@. c #5B89AF",
"#. c #5C8BB0",
"$. c #628CA5",
"%. c #638FAD",
"&. c #7E84A1",
"*. c #6693A9",
"=. c #6895AD",
"-. c #6B9CAC",
";. c #6192B0",
":. c #6A9DB2",
">. c #6FA2AD",
",. c #6FA2B1",
"<. c #71A6B3",
"1. c #76AEB6",
"2. c #77B0B6",
"3. c #78B1B7",
"4. c #77B2B8",
"5. c #78B2B8",
"6. c #898A8F",
"7. c #919196",
"8. c #959599",
"9. c #97989C",
"0. c #9A9B9E",
"q. c #8B8DA7",
"w. c #8E90A9",
"e. c #9597AE",
"r. c #9698AF",
"t. c #9EA0B5",
"y. c #A1A3B7",
"u. c #BEBEC1",
"i. c #A0C7CC",
"p. c #AECED2",
"a. c #B1D1D5",
"s. c #C1C1C3",
"d. c #C1C2CD",
"f. c #CACBCC",
"g. c #C5C6D0",
"h. c #CBCCD5",
"j. c #D0D1D2",
"k. c #D2D3DA",
"l. c #D8D9DE",
"z. c #DCDCE0",
"x. c #D9E9EB",
"c. c #E3E3E5",
"v. c #E6E7E8",
"b. c None",
"n. c #F0EFEE",
"m. c #F1F1EF",
"M. c #F2F2F0",
"N. c #FAFAFA",
"B. c white",
/* pixels */
"b.b.b.b.b.b.b.b.b.b.b.b.b.b.b.b.b.b.b.b.b.b.b.b.b.b.b.b.b.b.b.b.b.b.b.b.b.b.b.b.b.b.b.b.b.b.b.b.b.b.b.b.b.b.b.b.b.b.b.b.b.b.b.b.",
"b.b.b.b.b.b.b.b.b.b.b.b.b.b.b.b.b.b.b.b.b.b.b.b.b.b.b.b.b.b.b.b.b.b.b.b.b.b.b.b.b.b.b.b.b.b.b.b.b.b.b.b.b.b.b.b.b.b.b.b.b.b.b.b.",
"b.b.b.b.b.b.b.b.b.b.b.b.b.b.b.b.b.b.b.b.b.b.b.b.b.b.b.b.b.b.b.b.b.b.b.b.b.b.b.b.b.b.b.b.b.b.b.b.b.b.b.b.b.b.b.b.b.b.b.b.b.b.b.b.",
"b.b.b.b.b.b.b.b.b.b.b.b.b.b.b.b.b.b.b.b.b.b.b.b.b.b.b.b.b.b.b.b.b.b.b.b.b.b.b.b.b.b.b.b.b.b.b.b.b.b.b.b.b.b.b.b.b.b.b.b.b.b.b.b.",
"b.b.b.b.b.b.b.b.b.b.b.b.b.b.b.b.b.b.b.b.b.b.b.b.b.b.b.b.b.b.b.b.b.b.b.b.b.b.b.b.b.b.b.b.b.b.b.b.b.b.b.b.b.b.b.b.b.b.b.b.b.b.b.b.",
"b.b.b.b.b.b.b.b.b.b.b.b.b.b.b.b.b.b.b.b.b.b.b.b.b.b.b.b.b.b.b.b.b.b.b.b.b.b.b.b.b.b.b.b.b.b.b.b.b.b.b.b.b.b.b.b.b.b.b.b.b.b.b.b.",
"b.b.b.b.b.b.b.b.b.b.b.b.b.b.b.b.b.b.b.b.b.b.b.b.b.b.b.b.b.b.b.b.b.b.b.b.b.b.b.b.b.b.b.b.b.b.b.b.b.b.b.b.b.b.b.b.b.b.b.b.b.b.b.b.",
"b.b.b.b.b.b.b.b.b.b.b.b.b.b.b.b.b.b.b.b.b.b.b.b.b.b.b.b.b.b.b.b.b.b.b.b.b.b.b.b.b.b.b.b.b.b.b.b.b.b.b.b.b.b.b.b.b.b.b.b.b.b.b.b.",
"b.b.b.b.b.b.b.b.b.b.b.b.b.b.b.b.b.b.b.b.b.b.b.b.b.b.b.b.b.b.b.b.b.b.b.b.b.b.b.b.b.b.b.b.b.b.b.b.b.b.b.b.b.b.b.b.b.b.b.b.b.b.b.b.",
"b.b.b.b.b.b.b.b.b.b.b.b.b.b.b.b.b.b.b.b.b.b.b.b.b.b.b.b.b.b.b.b.b.b.b.b.b.b.b.b.b.b.b.b.b.b.b.b.b.b.b.b.b.b.b.b.b.b.b.b.b.b.b.b.",
"b.b.b.b.b.b.b.b.b.b.b.b.b.b.b.b.b.b.b.b.b.n.n.n.n.n.n.n.n.n.b.m.n.n.n.n.n.n.n.n.n.n.n.n.n.b.b.b.b.b.b.b.b.b.b.b.b.b.b.b.b.b.b.b.",
"b.b.b.b.b.b.b.b.b.b.b.b.b.b.b.b.b.b.b.n.l.y.t.t.t.t.t.t.t.t.t.t.t.t.t.t.t.t.t.t.t.t.t.t.l.b.b.b.b.b.b.b.b.b.b.b.b.b.b.b.b.b.b.b.",
"b.b.b.b.b.b.b.b.b.b.b.b.b.b.b.b.b.b.b.n.d.> - ; ; - ; - ; - ; - = : ; ; ; ; ; - ; ; ; > g.m.b.b.b.b.b.b.b.b.b.b.b.b.b.b.b.b.b.b.",
"b.b.b.b.b.b.b.b.b.b.b.b.b.b.b.b.b.b.n.n.d.> ; ; ; ; = ; ; - - ; = = ; ; ; ; ; - ; ; - , h.m.n.b.b.b.b.b.b.b.b.b.b.b.b.b.b.b.b.b.",
"b.b.b.b.b.b.b.b.b.b.b.b.b.b.b.b.b.x.e.w.&.y 0 y A A A u A A A C u u A A A A A A A A u A &.q.r.x.b.b.b.b.b.b.b.b.b.b.b.b.b.b.b.b.",
"b.b.b.b.b.b.b.b.b.b.b.b.b.b.b.b.b.h.2 = 1 J L ( @.#.#.;.#.#.#.#.@.@.*.#.@.#.#.#.#.#.#.@.3 - 4 k.b.b.b.b.b.b.b.b.b.b.b.b.b.b.b.b.",
"b.b.b.b.b.b.b.b.b.b.b.b.b.b.b.b.m.k.4 = 1 J L Y +.@.@.@.+.@.@.@.@.+.@.@.+.#.+.*.@.@.@.O.5 * 6 l.m.n.b.b.b.b.b.b.b.b.b.b.b.b.b.b.",
"b.b.b.b.b.b.b.b.b.b.b.b.b.b.c.q./ ^ V q C _ _ ' @.@.%.:.:.:.:.:.:.:.:.:.:.:.:.:.:.:.:.=.S y V ^ / w.c.b.b.b.b.b.b.b.b.b.b.b.b.b.",
"b.b.b.b.b.b.b.b.b.b.b.b.b.b.l.8 & < J L Y @.#.@.#.@.;.2.1.1.1.3.1.1.1.4.1.1.1.5.2.2.2.1.R K J ; & 9 l.b.b.b.b.b.b.b.b.b.b.b.b.b.",
"b.b.b.b.b.b.b.b.b.b.b.b.b.b.l.8 = 1 J L Y +.#.+.@.#.;.2.1.1.3.1.1.1.1.5.1.1.1.1.2.2.2.<.T L J 1 - t l.b.b.b.b.b.b.b.b.b.b.b.b.b.",
"b.b.b.b.b.b.b.b.b.b.b.b.b.b.z.8 ; 1 ) ` ' @.+.#.:.:.<.2.2.2.2.2.1.1.3.1.2.1.1.1.2.1.2.1.=.*.o.3 - t z.b.b.b.b.b.b.b.b.b.b.b.b.b.",
"b.b.b.b.b.b.b.b.b.b.b.b.b.b.z.8 ; 3 O.@.#.@.#.;.1.2.3.2.2.2.2.2.3.1.1.3.1.2.1.1.2.2.1.1.2.2.,.4 = t l.b.b.b.b.b.b.b.b.b.b.b.b.b.",
"b.b.b.b.b.b.b.b.b.b.b.b.b.b.z.8 = 3 O.@.#.@.@.;.1.1.1.2.1.1.2.1.1.1.1.1.2.1.1.2.1.2.1.<.1.1.>.4 = t l.b.b.b.b.b.b.b.b.b.b.b.b.b.",
"b.b.b.b.b.b.b.b.b.b.b.b.b.b.z.9 * 3 O.@.@.@.@.;.1.1.2.1.1.i.x.x.{ + @ I 2.1.2.1.1.r @ # ..2.<.G C D H H / v.b.b.b.b.b.b.b.b.b.b.",
"b.b.b.b.b.b.b.b.b.b.b.b.b.b.z.9 - 3 O.#.@.@.@.;.4.4.1.1.1.p.B.B.b     l 5.2.2.2.<.O   . | 2.<.Y L J ; & f c.b.b.b.b.b.b.b.b.b.b.",
"b.b.b.b.b.b.b.b.b.b.b.b.v.v.k.8 ; 3 O.@.#.#.@.;.1.1.4.1.1.p.N.N.b     l 5.2.2.2.1.O   . | 2.<.T L J > * f c.b.b.b.b.b.b.b.b.b.b.",
"b.b.b.b.b.b.b.b.b.b.b.v.W h h D Z S +.+.#.,.<.,.1.1.1.1.5.I $ % o     l 5.2.2.2.<.O   . } 2.1.-.-.$.1 * g c.b.b.b.b.b.b.b.b.b.b.",
"b.b.b.b.b.b.b.b.b.b.b.c.d = ; J P P +.#.;.1.4.1.1.4.1.1.5.k           l 3.1.2.1.1.O   . } 2.2.2.2.-.1 * h c.b.b.b.b.b.b.b.b.b.b.",
"b.b.b.b.b.b.b.b.b.b.n.z.f - : J P Y +.@.#.1.1.1.<.<.<.<.1.k . . . . . z 5.1.3.1.1.@ . X [ <.<.2.2.-.> - g c.b.b.b.b.b.b.b.b.b.b.",
"b.b.b.b.b.b.b.b.b.b.n.z.d - > J P P +.@.#.1.4.*.F F S S S U  . ...|  .>.3.3.3.1.2.X.| [ G S K ,.2.-.> - h c.b.b.b.b.b.b.b.b.b.b.",
"b.b.b.b.b.b.b.b.b.b.b.z.d - > J P Y +.@.;.1.4.*.B N N N N T 5.5.1.5.1.1.2.2.1.1.2.2.2.<.F B C >.2.-.3 - g c.b.b.b.b.b.b.b.b.b.b.",
"b.b.b.b.b.b.b.b.b.b.b.x.d - > J P P +.+.#.4.1.*.Z Z C B N U <.>.,.,.,.<.:.<.:.,.<.,.>.>.K C S >.2.*.> - g c.b.b.b.b.b.b.b.b.b.b.",
"b.b.b.b.b.b.b.b.b.b.n.z.d ; 1 J L P +.@.#.1.1.<.,.<.` B B B Z Z D D S Z Z Z Z Z Z Z Z S *.,.:.%.#.` > - g c.b.b.b.b.b.b.b.b.b.b.",
"b.b.b.b.b.b.b.b.b.n.n.z.d ; ; S L Y +.#.;.1.3.1.3.1.$.N N N N N B B N N N N N B B N N B :.4.1.%.#.` 1 - g c.b.b.b.b.b.b.b.b.b.b.",
"b.b.b.b.b.b.b.b.b.b.b.x.d ; > J L Y ' O.@.<.2.1.1.2.%.S S D e e e e e V N B B N B Z J J -.1.1.@.+.E ; ; g c.b.b.b.b.b.b.b.b.b.b.",
"b.b.b.b.b.b.b.b.b.b.b.c.d * : J L L P L T @.#.;.1.2.1.,.1.Q n n n n n w B B N B B *.<.<.1.3.<.Y L J < ; g c.b.b.b.b.b.b.b.b.b.b.",
"b.b.b.b.b.b.b.b.b.b.b.z.d & : J L L L L Y +.#.;.2.2.2.2.1.] m m m m m w N N N N B *.3.1.2.2.<.Y L S : = g c.b.b.b.b.b.b.b.b.b.b.",
"b.b.b.b.b.b.b.b.b.b.n.c.W h h D Z Z K L Y ' ' @.<.<.<.<.<.{ M M M M M D S S S S S *.<.<.:.:.=.Y L S : = g c.b.b.b.b.b.b.b.b.b.b.",
"b.b.b.b.b.b.b.b.b.b.b.b.v.v.l.9 ; 1 J L L L L Y +.#.+.@.@.@.+.@.#.#.+.+.@.@.@.@.+.@.@.@.Y L L L L J : = g c.b.b.b.b.b.b.b.b.b.b.",
"b.b.b.b.b.b.b.b.b.b.b.b.n.n.l.9 = 1 J P L L L ( #.@.@.#.@.@.@.@.#.+.@.@.@.@.@.@.@.#.@.@.Y K L P P J ; = f c.b.b.b.b.b.b.b.b.b.b.",
"b.b.b.b.b.b.b.b.b.b.b.b.j.f.p.s 8 9 V C Z L L Y ` ' ' ' ' ' ` ' ' ' ' ' ' ' ' ' ' ' ' ` Y K K Z C V 7 7 x c.b.b.b.b.b.b.b.b.b.b.",
"b.b.b.b.b.b.b.b.b.b.b.c.7.b { { ~ v > : 2 J L L L L L L L L L K L L L L L L L L L L L L L L S 1 ; 2 v ~ 7.c.b.n.b.b.b.b.b.b.b.b.",
"b.b.b.b.b.b.b.b.b.n.m.n.7.b { M ~ x : * 1 K P L L L Y L L L L Y L L L L L L L K L L L L Y K S 1 = 2 v ~ 7.v.n.n.b.b.b.b.b.b.b.b.",
"b.b.b.b.b.b.b.b.n.f.s.a.6.b b b ~ v p i t V V V V u u V V B V B V D N V V u V u V V V V B A u t i a ! Q 6.u.s.f.b.b.b.b.b.b.b.b.",
"b.b.b.b.b.b.b.b.v.9.b { { { { ~ { { { b x > ; ; ; ; ; ; = : = : ; ; : = * : : - ; ; ; ; : ; , c ~ ~ ~ ~ b { b 8.b.b.b.b.b.b.b.b.",
"b.b.b.b.b.b.b.b.b.9.b M b { M ~ b { M ] x ; ; ; - - ; ; - - = = ; ; = ; - = - * ; ; ; > ; - > c ~ ~ ~ ~ { { b 0.v.b.b.b.b.b.b.b.",
"b.b.b.b.b.b.b.b.v.9.b b M { ~ ~ ~ ~ ~ ~ v a a a s a s s a a a a a a a a a a a a a p p j a a s b ~ ~ ~ ~ M { b 0.b.b.b.b.b.b.b.b.",
"b.b.b.b.b.b.b.b.b.0.b { { { ~ ~ ~ ~ ~ ~ b b { ~ ~ ~ { { { M b { ] ~ ~ ~ ~ ] b { ~ { M { ~ ~ ~ ~ ~ ~ ~ ~ b { b r.b.b.b.b.b.b.b.b.",
"b.b.b.b.b.b.b.b.v.0.b ~ ~ ~ ~ ~ ~ ~ ~ ~ ~ ~ ~ ~ ~ ~ ~ ~ ~ ~ ~ ~ ~ ~ ~ ~ ~ ~ ~ ~ ~ ~ ~ ~ ~ ~ ~ ~ ~ ~ ~ ~ ~ ~ b 0.n.b.b.b.b.b.b.b.",
"b.b.b.b.b.b.b.b.v.8.b ~ ~ ~ ~ ~ ~ ~ ~ ~ ~ ~ ~ ~ ~ ~ ~ ~ ~ ~ ~ ~ ~ ~ ~ { ~ ~ ~ ~ ~ ~ ~ ~ ~ ~ ~ ~ ~ ~ ~ ~ ~ ~ ~ 0.v.b.b.b.b.b.b.b.",
"b.b.b.b.b.b.b.b.b.9.b ~ ~ ~ ~ ~ ~ ~ ~ ~ ~ ~ ~ ~ ~ ~ ~ ~ ~ ~ ~ ~ ~ ~ { { ~ ~ ~ ~ ~ ~ ~ ~ ~ ~ ~ ~ ~ ~ ~ ~ ~ ~ b 0.b.b.b.b.b.b.b.b.",
"b.b.b.b.b.b.b.b.v.0.b ] ~ ~ ~ ~ ~ ~ ~ ~ ~ ~ ~ ~ ~ ~ ~ ~ ~ ~ ~ ~ ~ ~ M { ~ ~ ~ ~ ~ ~ ~ ~ ~ ~ ~ ~ ~ ~ ~ ~ ~ ~ b 0.b.b.b.b.b.b.b.b.",
"b.b.b.b.b.b.b.b.b.f.s.u.6.~ ~ ~ ~ ~ ~ ~ ~ ~ ~ ~ ~ ~ ~ ~ ~ ~ ~ ~ ~ ~ ~ ~ ~ ~ ~ ~ ~ ~ ~ ~ ~ ~ ~ ~ ~ ~ ~ ~ 6.y.s.f.b.b.b.b.b.b.b.b.",
"b.b.b.b.b.b.b.b.b.b.b.v.7.~ ~ ~ ~ ~ ~ ~ ~ ~ ~ ~ ~ ~ ~ ~ ~ ~ ~ ~ ~ ~ ~ ~ ~ ~ ~ ~ ~ ~ ~ ~ b b ~ ~ ~ ~ ~ ~ 8.N.b.b.b.b.b.b.b.b.b.b.",
"b.b.b.b.b.b.b.b.b.b.b.c.7.~ ~ ~ ~ ~ ~ ~ ~ ~ ~ ~ ~ ~ ~ ~ ~ ~ ~ ~ ~ ~ ~ ~ ~ ~ ~ ~ ~ ~ ~ ~ 6.b b b ~ ~ ~ ~ 9.v.b.b.b.b.b.b.b.b.b.b.",
"b.b.b.b.b.b.b.b.b.b.b.b.h.f.f.f.f.f.f.f.f.f.f.h.h.f.f.f.f.f.f.f.f.f.f.f.f.f.f.f.f.f.f.h.f.f.f.f.f.f.f.f.j.n.b.b.b.b.b.b.b.b.b.b.",
"b.b.b.b.b.b.b.b.b.b.b.b.n.b.b.n.b.m.b.n.b.n.b.b.m.b.b.b.b.m.b.b.m.b.b.b.b.m.b.b.m.b.b.b.n.b.b.b.b.b.b.b.b.b.b.b.b.b.b.b.b.b.b.b.",
"b.b.b.b.b.b.b.b.b.b.b.b.b.b.b.b.b.b.b.b.b.b.b.b.b.b.b.b.b.b.b.b.b.b.b.b.b.b.b.b.b.b.b.b.b.b.b.b.b.b.b.b.b.b.b.b.b.b.b.b.b.b.b.b.",
"b.b.b.b.b.b.b.b.b.b.b.b.b.b.b.b.b.b.b.b.b.b.b.b.b.b.b.b.b.b.b.b.b.b.b.b.b.b.b.b.b.b.b.b.b.b.b.b.b.b.b.b.b.b.b.b.b.b.b.b.b.b.b.b.",
"b.b.b.b.b.b.b.b.b.b.b.b.b.b.b.b.b.b.b.b.b.b.b.b.b.b.b.b.b.b.b.b.b.b.b.b.b.b.b.b.b.b.b.b.b.b.b.b.b.b.b.b.b.b.b.b.b.b.b.b.b.b.b.b.",
"b.b.b.b.b.b.b.b.b.b.b.b.b.b.b.b.b.b.b.b.b.b.b.b.b.b.b.b.b.b.b.b.b.b.b.b.b.b.b.b.b.b.b.b.b.b.b.b.b.b.b.b.b.b.b.b.b.b.b.b.b.b.b.b.",
"b.b.b.b.b.b.b.b.b.b.b.b.b.b.b.b.b.b.b.b.b.b.b.b.b.b.b.b.b.b.b.b.b.b.b.b.b.b.b.b.b.b.b.b.b.b.b.b.b.b.b.b.b.b.b.b.b.b.b.b.b.b.b.b.",
"b.b.b.b.b.b.b.b.b.b.b.b.b.b.b.b.b.b.b.b.b.b.b.b.b.b.b.b.b.b.b.b.b.b.b.b.b.b.b.b.b.b.b.b.b.b.b.b.b.b.b.b.b.b.b.b.b.b.b.b.b.b.b.b.",
"b.b.b.b.b.b.b.b.b.b.b.b.b.b.b.b.b.b.b.b.b.b.b.b.b.b.b.b.b.b.b.b.b.b.b.b.b.b.b.b.b.b.b.b.b.b.b.b.b.b.b.b.b.b.b.b.b.b.b.b.b.b.b.b."
};
