/* XPM */
static char *_0c0932d9a3a4097bbf7026af5c6ec7dyddxt5XTSBxwaG38[] = {
/* columns rows colors chars-per-pixel */
"64 64 180 2 ",
"   c #2B2E33",
".  c #2D3334",
"X  c #2C3835",
"o  c #303835",
"O  c #3E3B36",
"+  c #433E35",
"@  c #2F4737",
"#  c #344238",
"$  c #384B38",
"%  c #325238",
"&  c #345E3A",
"*  c #3F593D",
"=  c #35643B",
"-  c #3B643B",
";  c #37683C",
":  c #3A6A3D",
">  c #4E412E",
",  c #50462E",
"<  c #56482F",
"1  c #5C4D2F",
"2  c #474034",
"3  c #4B4333",
"4  c #524631",
"5  c #554931",
"6  c #5B4C30",
"7  c #4A5434",
"8  c #4D5F32",
"9  c #415D3D",
"0  c #545332",
"q  c #5B5632",
"w  c #545E31",
"e  c #5D5C33",
"r  c #614F2E",
"t  c #65512E",
"y  c #6D562C",
"u  c #645C2C",
"i  c #695D2D",
"p  c #765727",
"a  c #765827",
"s  c #725729",
"d  c #73592C",
"f  c #7B5D2A",
"g  c #614F30",
"h  c #655230",
"j  c #6B5630",
"k  c #655D33",
"l  c #6A5C32",
"z  c #725B31",
"x  c #4B6937",
"c  c #44643E",
"v  c #5C6336",
"b  c #5A6435",
"n  c #5D6F3A",
"m  c #4F793C",
"M  c #5D753C",
"N  c #7C602E",
"B  c #666733",
"V  c #646939",
"C  c #736333",
"Z  c #7B6331",
"A  c #6F7735",
"S  c #64713A",
"D  c #6A743A",
"F  c #707735",
"G  c #737935",
"H  c #466740",
"J  c #476A41",
"K  c #496F42",
"L  c #4A7242",
"P  c #467E43",
"I  c #4B7D44",
"U  c #597C41",
"Y  c #82612C",
"T  c #8B662B",
"R  c #8F6A2B",
"E  c #936A2A",
"W  c #996E2A",
"Q  c #92702C",
"!  c #9E702A",
"~  c #806130",
"^  c #956E32",
"/  c #986F31",
"(  c #877832",
")  c #957233",
"_  c #A1722A",
"`  c #A8772C",
"'  c #A17432",
"]  c #AC7C32",
"[  c #B37F32",
"{  c #64823E",
"}  c #6C853C",
"|  c #69893D",
" . c #4B8446",
".. c #4C8B46",
"X. c #4F8B49",
"o. c #518346",
"O. c #5D8441",
"+. c #528847",
"@. c #538D49",
"#. c #53944A",
"$. c #59944A",
"%. c #57994C",
"&. c #599C4C",
"*. c #549659",
"=. c #618742",
"-. c #639646",
";. c #689946",
":. c #5DA44D",
">. c #5FAA4F",
",. c #5CA851",
"<. c #64A34B",
"1. c #6AA34A",
"2. c #64AC4E",
"3. c #7DA547",
"4. c #75AE49",
"5. c #7BAC4A",
"6. c #66B14F",
"7. c #6EB54F",
"8. c #72B44D",
"9. c #79B34C",
"0. c #63AC50",
"q. c #6AAF54",
"w. c #65B451",
"e. c #6CB452",
"r. c #67BA52",
"t. c #68BB53",
"y. c #67BC5A",
"u. c #68BE59",
"i. c #73B956",
"p. c #74BE59",
"a. c #62B464",
"s. c #61B272",
"d. c #6EC055",
"f. c #68C15D",
"g. c #74C457",
"h. c #75C658",
"j. c #7BC359",
"k. c #77C859",
"l. c #7BCB5A",
"z. c #7FD05C",
"x. c #69C564",
"c. c #6FCA67",
"v. c #68C668",
"b. c #71CA66",
"n. c #898537",
"m. c #8C8936",
"M. c #AD8936",
"N. c #B68132",
"B. c #BB8333",
"V. c #B38F36",
"C. c #BE8B34",
"Z. c #AC9B3B",
"A. c #BC9637",
"S. c #B99639",
"D. c #B59A3A",
"F. c #C18733",
"G. c #C58933",
"H. c #CD8E34",
"J. c #D18F34",
"K. c #C39336",
"L. c #CD9135",
"P. c #C29A39",
"I. c #D19035",
"U. c #87AB46",
"Y. c #8AA944",
"T. c #95A542",
"R. c #81B14B",
"E. c #8BB14E",
"W. c #89C052",
"Q. c #84C75A",
"!. c #83CC5B",
"~. c #9CC856",
"^. c #97CC58",
"/. c #84D35E",
"(. c #88D75F",
"). c #89D85F",
"_. c #85D661",
"`. c #8CDA61",
"'. c #529DA2",
"]. c #53A0B9",
/* pixels */
"t.t.t.t.t.t.t.t.t.t.t.t.t.t.t.t.t.t.t.t.t.t.t.t.t.t.t.t.t.t.t.t.t.t.t.t.r.r.t.t.t.t.t.t.t.t.t.t.t.t.t.t.t.t.t.t.t.t.t.t.t.t.t.t.",
"t.t.t.t.t.t.r.r.t.t.t.t.t.t.t.t.t.t.t.t.t.t.t.t.t.t.t.t.t.t.t.t.t.t.t.t.r.r.t.t.t.t.t.t.t.t.t.t.t.t.t.t.t.t.t.t.t.t.t.t.t.t.t.t.",
"t.t.t.t.t.t.t.t.t.t.t.t.t.t.t.t.t.t.t.t.t.t.t.t.t.t.t.t.t.t.t.t.t.t.t.t.t.t.t.t.t.t.t.t.t.t.t.t.t.t.t.t.t.t.t.t.t.t.t.t.t.t.t.t.",
"t.t.t.t.t.t.t.t.t.t.t.t.t.t.t.t.t.t.t.t.t.t.r.t.t.t.t.t.t.t.t.t.t.t.t.t.t.t.t.t.t.t.t.t.t.t.t.t.t.t.t.t.t.t.t.t.t.t.t.t.t.t.t.t.",
"t.t.t.t.t.t.t.t.t.t.t.t.t.t.t.t.t.t.t.t.t.t.t.t.t.t.t.t.t.t.t.t.t.t.t.t.t.t.t.t.r.r.r.t.e.u.t.t.t.t.t.t.t.t.t.t.t.t.t.t.t.t.t.t.",
"t.t.t.t.t.t.t.t.t.t.t.t.t.t.t.t.t.t.r.t.t.t.t.t.t.t.t.t.t.t.t.t.t.t.t.r.t.t.t.t.r.r.t.t.r.r.t.t.t.t.t.t.t.t.t.t.t.t.t.t.t.t.t.t.",
"t.t.t.t.t.t.t.t.t.t.t.t.d.t.t.t.r.t.t.t.t.t.t.t.r.r.6.2.2.7.8.8.8.8.8.8.8.8.7.8.8.8.8.8.8.8.8.8.e.8.8.u.t.t.t.t.t.t.t.t.t.t.t.t.",
"t.t.t.t.t.t.t.t.t.t.t.d.z.z./.k.r.t.t.t.t.t.t.t.t.r.=.S D m.Z.Z.Z.Z.Z.Z.Z.Z.Z.Z.Z.Z.Z.Z.Z.Z.Z.Z.Z.Z.T.8.t.t.t.t.t.t.t.t.t.t.t.t.",
"t.t.t.t.t.t.t.t.t.t.r.g.(.).`.l.r.r.u.r.r.u.t.t.t.t.D j z ' I.I.L.J.J.J.I.I.J.J.J.J.J.J.J.J.J.J.I.I.A.7.r.r.r.d.t.t.t.t.t.t.t.t.",
"t.t.t.t.t.t.t.t.t.t.r.g.(.).`.l.r.r.r.r.t.t.r.t.t.t.D j j ' I.I.J.I.I.I.I.I.I.I.I.I.I.I.J.J.I.I.I.I.A.7.r.r.r.r.r.t.t.r.t.t.t.t.",
"t.t.t.t.t.t.t.t.t.t.t.g.^.^.^.W.9.9.9.5.9.9.9.9.9.9.D j j ^ B.B.B.B.B.B.B.B.B.B.G.G.G.G.G.H.G.G.F.B.V.5.8.9.9.9.9.9.7.r.t.t.t.t.",
"t.t.t.t.t.t.t.t.t.t.t.R.D.P.P.P.A.A.A.S.A.A.A.A.A.A.Z 1 6 t j y y j d j y y j d ! ` ` ` ` ` ` E f y N V.A.A.A.A.A.S.Y.r.t.t.t.t.",
"t.t.t.t.t.t.t.t.t.t.t.U.K.I.I.I.I.I.I.J.I.I.I.I.H.J.Y 6 6 6 6 6 6 6 6 6 6 6 6 1 ^ ! ! _ _ ! ! T q 6 j G.J.J.J.J.J.I.T.r.t.t.t.t.",
"t.t.t.t.t.t.t.t.t.t.t.U.K.I.H.I.I.I.L.J.J.L.L.I.H.H.f 6 6 6 6 6 6 6 6 6 6 6 6 6 R _ _ ! ! _ ! T r 6 z F.H.H.H.J.H.H.T.r.t.t.t.t.",
"r.t.t.t.t.t.t.t.t.t.t.3.M.N.N.N.[ [ [ [ [ [ [ ] ] ] z 5 5 5 5 4 5 5 5 5 5 5 5 5 f R T T T T T Y r r d N.G.G.C.D.D.D.U.r.t.t.t.t.",
"t.t.t.t.t.t.t.t.t.t.t.;.C z z y g h h h h g 5 3 3 2 + + + + + + + + + + + O O O + + + 3 5 4 4 r p p f ! ` _ m.8.7.7.7.r.t.t.t.t.",
"t.t.t.t.t.t.t.t.t.t.t.;.B y j h 6 6 6 1 1 6 3 O O + O + + O + + + O O + O O O O + O + + 3 > 3 1 s p f W ! ! m.r.r.r.t.t.t.t.t.t.",
"t.t.t.t.t.t.t.t.t.t.t.-.k j j j t h t 6 6 6 5 4 4 4 2 + + + + + + 2 + + + + O + + O + + 3 3 3 < y y p T E E n.4.8.8.7.t.t.t.t.t.",
"t.t.t.t.t.t.t.t.t.t.t.;.l j l f E E Y g 1 1 d T T T h 5 5 6 5 5 5 5 5 5 5 5 5 4 + + + 2 + 2 3 3 4 , , 1 5 6 C V.S.S.U.e.t.t.t.t.",
"t.t.t.t.t.t.t.r.t.t.t.-.l j j Y _ _ T 6 6 1 Y ! _ _ d 6 6 6 6 6 1 1 1 1 1 6 6 6 3 + 2 2 2 + + 2 + + + + + 2 z G.J.J.T.t.r.t.t.t.",
"t.t.t.r.t.t.t.t.t.t.t.;.l j l ~ _ _ T 1 6 1 Y ! _ _ j 6 6 6 6 6 6 6 6 6 6 6 6 6 3 2 + 2 + + + + + + + + + + z G.I.I.T.r.r.t.t.t.",
"t.t.t.t.t.t.t.t.t.t.t.;.k j h f E T N 1 6 1 N ! _ ! Y y y y y y y y y y d y y y 4 2 2 2 , , < 4 4 4 < 1 r r f ] N.M.m.w.r.t.t.t.",
"t.t.t.t.t.t.t.t.t.t.t.$.q 6 6 r t t r 1 1 1 Y W ! _ W W W W W W ! E ! W W W W E g 3 3 5 t s s s s s d E E E T y j t =.r.t.t.t.t.",
"t.t.t.t.t.t.t.t.t.t.t.-.q 1 1 6 6 1 6 6 1 1 Y _ _ _ _ _ _ ! _ _ ! _ _ ! _ _ _ W g 3 3 6 s a a a a p f W _ _ T r 6 q O.r.t.t.t.t.",
"t.r.t.t.r.t.t.t.t.t.t.$.q 1 1 1 6 6 6 6 1 1 f ! _ _ _ _ _ _ _ _ _ _ _ _ _ _ _ ! h 3 3 < y p p p a a f W _ ` T 1 1 1 M t.t.t.t.t.",
"s.y.r.t.t.t.t.t.t.t.t.;.M n n e 1 6 6 6 1 1 d T T T T T T T T T T T T T T T T T t 3 4 0 B F F F F F G n.m.m.G n n n -.r.t.t.t.t.",
"].a.t.t.t.t.t.t.t.t.t.t.t.t.t.=.1 6 6 6 1 1 1 1 1 1 1 1 1 1 1 1 6 1 1 6 1 1 1 1 6 6 6 b <.r.r.r.r.r.t.t.t.e.t.r.r.r.r.r.t.t.t.t.",
"].a.t.t.t.t.t.t.t.t.t.t.t.t.t.O.1 1 1 1 1 1 1 1 1 1 1 1 1 1 1 1 6 6 1 1 1 1 1 1 1 1 < v 2.t.t.t.r.r.t.t.t.t.r.t.t.t.t.t.t.t.t.t.",
"'.a.r.t.t.t.t.t.t.t.t.d.d.d.d.-.v v v V V V V v v v v v v e r r r t t y t d f l B e v M 2.t.t.t.r.t.t.t.t.t.t.t.t.t.t.t.t.t.t.t.",
"*.w.t.t.t.t.t.t.t.t.t.d././.(.g.2.2.e.Q.Q.Q.i.2.2.2.2.2.2.A s s d T W W ! B.F.C.3.2.2.2.7.t.t.t.r.t.t.t.t.t.t.t.t.t.t.t.t.t.t.t.",
"#.w.r.t.t.t.t.t.t.t.r.g.).`.`.z.t.t.g.`.`.`.l.t.t.t.t.t.t.} a a f E _ _ ] G.J.L.R.t.t.t.t.t.t.t.t.t.t.t.t.t.t.t.t.t.t.t.t.t.t.t.",
"#.w.r.t.t.t.t.t.t.t.r.g.).).`.l.r.t.g.`.`.`.l.t.t.t.t.t.t.| a a a E _ ! ` G.I.L.9.t.t.t.t.t.t.t.t.t.t.t.t.t.t.t.t.t.t.t.t.t.t.t.",
":.w.t.t.t.t.t.t.t.t.t.g._.`.`.l.t.t.g.`.`.).k.t.t.t.t.u.t.| t y s T _ _ _ ` [ ] 5.t.t.t.t.t.t.t.t.t.t.t.t.t.t.t.t.t.t.t.t.t.t.t.",
"w.t.t.t.t.t.t.t.t.t.t.g.`.`.`.l.t.t.g.).`.).k.t.r.t.t.t.w.M , , < T _ _ W N f C 1.t.t.t.t.t.t.t.t.t.t.t.t.t.t.t.t.t.t.t.t.t.t.t.",
"t.t.t.t.t.t.t.t.t.t.t.g.(.`.`.l.t.t.g.).`.).l.u.r.t.t.t.t.m > 3 < Y _ _ W z j j <.t.t.t.t.t.t.t.t.t.t.t.t.t.t.t.t.t.t.t.t.t.t.t.",
"t.t.t.t.t.t.t.t.t.t.t.g.`.`.`.l.t.t.k.`.`.`.j.t.r.t.t.t.t.U > > < Y _ _ W i j j <.r.t.t.t.t.r.r.t.t.r.r.r.r.r.t.t.t.t.t.t.t.t.t.",
"t.t.t.t.t.t.t.t.t.t.r.t.u.i.i.i.t.t.e.i.i.i.t.t.r.r.t.t.r.{ 1 1 r T _ _ ! / ) ) R.l.k.h.f.f.f.t.r.r.t.k.k.k.g.t.w.t.t.t.t.t.t.t.",
"t.t.t.t.t.t.t.t.t.t.t.:.X.X.+.:.t.r.>.X.X.X.:.r.r.r.r.t.r.} a a f E _ _ ` G.I.L.~.`.`._.c.v.v.x.r.r.d.).`.`./.d.t.t.t.t.t.t.t.t.",
"t.t.t.t.t.t.t.t.t.t.t.>.#.X...:.t.r.2.X.X.@.:.t.t.t.r.r.w.| a a f E _ _ ` G.I.L.~.).)._.c.v.v.x.r.r.d._.`.)./.t.w.t.t.t.t.t.t.t.",
"t.t.t.t.t.t.t.t.t.t.t.0.%.%.#.:.t.r.w.%.%.%.>.f.t.t.t.t.r.| u u u Y T R W G.L.L.E.p.i.p.b.b.b.c.t.r.d./.`.`.l.t.t.t.t.t.t.t.t.t.",
"t.t.t.t.t.t.t.t.t.t.t.r.r.r.r.r.t.r.r.w.r.w.y.v.v.v.y.r.r...= = - 0 1 r y C.H.L.M ; ;  .j.`.`.l.t.t.d.(.).)./.t.r.t.t.t.t.t.t.t.",
"t.t.t.t.t.t.t.t.t.t.t.t.t.r.t.t.t.t.t.t.t.t.f.v.v.v.y.r.r...= = & 0 1 1 y B.J.L.n & = m j.`.`./.t.t.t.(.).).!.t.r.t.t.t.t.t.t.t.",
"r.r.t.t.t.t.t.t.t.t.t.t.t.t.t.t.t.t.t.t.t.t.f.v.v.v.f.r.r...= = : 7 1 1 s B.H.H.x = = P j.`.`.l.d.t.g.(.`.`./.t.r.t.t.t.t.t.t.t.",
">.r.t.t.t.t.t.r.t.t.t.r.t.r.t.t.t.t.t.t.t.t.y.f.f.f.:.#.#.m 8 8 b i a a N ( ( n.O.....%.!.`.`./.t.t.g.).`.)./.t.r.r.t.t.t.t.t.t.",
"#.w.r.t.t.t.t.t.t.t.t.t.t.t.t.r.t.t.t.t.t.t.r.r.t.t. .= : w a a s T ! ! Q x : : :.w.r.t./.).`.l.t.t.d.).`.`./.t.r.t.t.t.t.t.t.t.",
"#.w.t.t.t.t.t.t.t.t.t.t.t.t.t.t.t.t.t.t.t.t.t.t.r.r.m = ; w a p f E _ _ Q : = ; :.d.t.d.(.`.`./.t.t.d.(.`.)./.t.r.t.t.t.t.t.t.t.",
"#.w.t.t.t.t.t.t.t.t.t.t.t.t.t.t.t.t.t.t.t.t.t.t.t.t.P ; = w p a f E _ ! Q x = ; :.t.t.d.(.`.`.l.t.r.d.(.).).z.d.r.r.t.t.t.t.t.t.",
",.w.t.t.t.t.t.t.t.t.t.t.t.t.t.t.t.t.t.t.t.t.t.t.t.t.I - - 7 > + > e B B b $ @ @ P ..@.$.2.q.q.e.r.r.r.e.q.q.w.r.r.t.t.t.t.t.t.t.",
"t.r.t.t.t.t.r.t.t.t.t.t.t.t.t.t.r.r.r.t.t.t.t.t.t.r.o.H H # .   . % ; ; & X   . * H H K  .X.X.%.w.r.w.@.X.X.&.w.r.t.t.t.t.t.t.t.",
"t.t.t.t.t.t.t.t.t.t.t.t.t.t.t.t.t.t.r.r.t.t.t.t.t.r.I H H #     . % = = & .   . * H H J  .X.X.%.r.r.w.@.X...&.r.t.t.t.t.t.t.t.t.",
"t.t.t.t.t.t.t.t.t.t.t.t.t.t.r.t.t.t.t.t.t.t.t.t.u.r.$.o.I H O # # @ % % % # # # L o.o.+.%.&.&.,.w.t.w.&.%.&.:.r.t.t.t.t.t.t.t.t.",
"t.t.t.t.t.t.t.t.t.t.t.t.t.t.t.t.t.t.t.t.t.t.t.t.e.r.r.r.t.@.H H c #   . . 9 H H :.r.r.r.r.r.r.r.t.t.t.t.r.r.r.r.t.t.t.t.t.t.t.t.",
"t.t.t.t.t.r.t.t.t.t.t.t.t.t.t.t.t.t.t.t.t.t.t.t.t.t.t.t.t.@.H H c o .   . 9 c H :.u.t.t.t.t.t.t.t.t.t.t.t.t.t.t.t.t.t.t.t.t.t.t.",
"t.t.t.t.t.t.t.t.t.t.t.t.t.t.t.t.t.t.t.t.t.t.t.t.t.t.t.t.r.@.x c c #   . o c J J 0.r.t.t.t.t.t.t.t.t.t.t.t.t.t.t.t.t.t.t.t.t.t.t.",
"t.t.t.t.t.t.t.t.t.t.t.r.t.t.t.t.t.t.t.t.t.t.t.t.t.t.t.t.r.:.@.@.o.H # $ $ o.@.@.2.t.t.t.t.t.t.t.t.t.t.t.t.t.t.t.t.t.t.t.t.t.t.t.",
"t.t.t.t.t.t.t.t.t.t.t.t.t.t.t.t.t.t.t.t.t.r.t.t.t.t.t.t.t.w.r.r.0.I H H K 2.t.r.t.t.t.t.t.t.t.t.t.t.t.t.t.t.t.t.t.t.t.t.t.t.t.t.",
"t.t.t.t.t.t.t.t.t.t.r.t.t.t.t.t.t.t.t.t.t.t.t.t.t.t.t.t.t.t.t.t.w.o.c c L 6.t.t.t.r.t.t.t.t.t.t.t.t.t.t.t.t.t.t.t.t.t.t.t.t.t.t.",
"t.t.t.t.t.t.t.t.t.t.t.t.t.t.t.t.t.t.t.t.r.t.t.t.t.t.t.t.t.t.t.t.w.o.c c L 6.t.t.t.t.t.t.t.t.t.t.t.t.t.t.t.t.t.t.t.t.t.t.t.t.t.t.",
"t.t.t.t.t.t.t.t.t.t.t.t.t.t.t.t.t.t.t.t.t.t.t.t.t.t.t.t.t.t.t.t.r.:.%.%.&.r.t.t.t.t.t.t.t.t.t.t.t.t.t.t.t.t.t.t.t.t.t.r.t.t.t.t.",
"t.t.t.t.t.t.t.t.t.t.t.t.t.t.t.t.t.t.t.t.t.t.t.t.t.t.t.t.t.t.t.t.r.r.e.t.t.t.t.t.t.t.t.t.t.t.t.t.t.t.t.t.t.t.t.t.t.t.t.t.t.t.t.t.",
"t.t.t.t.t.t.t.t.t.t.t.t.t.t.t.t.t.t.t.t.t.t.t.t.t.t.t.t.t.t.t.t.t.t.t.t.t.t.t.t.t.t.t.r.t.t.t.t.t.t.t.t.t.t.t.t.t.t.y.t.t.t.t.t.",
"t.t.t.t.t.t.t.t.t.t.t.t.t.t.t.t.t.t.t.t.t.t.t.t.t.t.t.t.t.t.t.t.t.t.t.t.t.t.t.t.t.t.t.t.t.t.t.r.t.t.t.t.t.t.t.t.t.t.r.t.t.t.t.t.",
"t.t.t.t.y.t.t.t.t.t.t.t.t.t.t.t.t.t.t.t.t.t.t.t.t.t.t.t.t.t.t.t.t.t.t.t.t.t.t.t.t.t.t.t.t.t.t.t.t.t.t.t.t.t.t.t.t.t.t.t.t.t.t.t.",
"t.t.t.t.r.t.t.t.t.t.t.t.t.t.t.r.t.t.t.t.t.t.t.t.t.t.t.t.t.t.t.t.t.t.t.t.t.t.t.t.t.t.t.t.t.t.t.t.t.t.t.t.t.t.t.t.t.t.t.t.t.t.t.t."
};
