/* XPM */
static char *result[] = {
/* columns rows colors chars-per-pixel */
"64 64 190 2 ",
"   c #1B2C0A",
".  c #1E320C",
"X  c #232D0E",
"o  c #21370E",
"O  c #22390E",
"+  c #2B2C11",
"@  c #3C2B19",
"#  c #263610",
"$  c #2B3512",
"%  c #253C12",
"&  c #293B16",
"*  c #303616",
"=  c #39341A",
"-  c #2B3C26",
";  c #2F3A28",
":  c #353A2A",
">  c #3A392B",
",  c #442B1C",
"<  c #45301D",
"1  c #5E2A27",
"2  c #443829",
"3  c #51332F",
"4  c #593234",
"5  c #632D2A",
"6  c #6B3D2E",
"7  c #682F39",
"8  c #752732",
"9  c #752A32",
"0  c #7B2E35",
"q  c #693238",
"w  c #274214",
"e  c #294414",
"r  c #2C4B15",
"t  c #2D4E1B",
"y  c #2F511D",
"u  c #315216",
"i  c #32551E",
"p  c #355B19",
"a  c #3C5C1C",
"s  c #3B641D",
"d  c #3F6B1F",
"f  c #2E4025",
"g  c #315625",
"h  c #345B21",
"j  c #3D5D31",
"k  c #386326",
"l  c #3E6C23",
"z  c #37612E",
"x  c #38632E",
"c  c #3D6B2A",
"v  c #3C6A32",
"b  c #406E1F",
"n  c #5A5528",
"m  c #4F5033",
"M  c #6D473B",
"N  c #735232",
"B  c #406F29",
"V  c #447322",
"C  c #41732C",
"Z  c #487A2B",
"A  c #577B2E",
"S  c #467D33",
"D  c #467738",
"F  c #636F2E",
"G  c #7D6336",
"H  c #6D7A33",
"J  c #747033",
"K  c #7F3940",
"L  c #6F5E47",
"P  c #725746",
"I  c #6D6E45",
"U  c #6D6C4B",
"Y  c #7C744C",
"T  c #7C7A4D",
"R  c #832B39",
"E  c #8E2A3C",
"W  c #902B3E",
"Q  c #8E4E3E",
"!  c #914B3F",
"~  c #865639",
"^  c #8C553E",
"/  c #8E2C43",
"(  c #9B2C43",
")  c #973545",
"_  c #9E3B43",
"`  c #AB2A46",
"'  c #A22C4A",
"]  c #AD2B4C",
"[  c #B52B4E",
"{  c #B82B4F",
"}  c #A33446",
"|  c #AC314D",
" . c #A5384C",
".. c #AB394E",
"X. c #B1314E",
"o. c #AD2D51",
"O. c #B62C50",
"+. c #BB2C54",
"@. c #BD2E58",
"#. c #AD3554",
"$. c #B5335A",
"%. c #C32E5C",
"&. c #C4305E",
"*. c #C92F61",
"=. c #C73060",
"-. c #CC3265",
";. c #CF3E63",
":. c #CF3268",
">. c #D03269",
",. c #894A48",
"<. c #964540",
"1. c #9B4544",
"2. c #964B4C",
"3. c #9C4A4E",
"4. c #8E5A4D",
"5. c #965350",
"6. c #A6414E",
"7. c #A3494E",
"8. c #A54652",
"9. c #B5455D",
"0. c #8A634D",
"q. c #85684E",
"w. c #81764E",
"e. c #8C6751",
"r. c #BC4664",
"t. c #CF6758",
"y. c #CF7755",
"u. c #D07B55",
"i. c #CF4361",
"p. c #CF4960",
"a. c #D05261",
"s. c #4B8226",
"d. c #4D852C",
"f. c #4F8829",
"g. c #58852E",
"h. c #518C2A",
"j. c #55922C",
"k. c #5A9B2F",
"l. c #498235",
"z. c #4B853D",
"x. c #4D8A3C",
"c. c #508F3C",
"v. c #5C9E30",
"b. c #569438",
"n. c #65862F",
"m. c #678330",
"M. c #718236",
"N. c #619431",
"B. c #609A31",
"V. c #5CA030",
"C. c #4E8947",
"Z. c #518C4A",
"A. c #529343",
"S. c #569A42",
"D. c #589E46",
"F. c #54934B",
"G. c #56994C",
"H. c #6B804D",
"J. c #79814E",
"K. c #74894E",
"L. c #69984E",
"P. c #7C8E51",
"I. c #6E9D50",
"U. c #5BA347",
"Y. c #5FA842",
"T. c #5DA54B",
"R. c #5EA94B",
"E. c #65AA49",
"W. c #61AE4D",
"Q. c #64B045",
"!. c #63B24E",
"~. c #6CA351",
"^. c #63AE50",
"/. c #68AD51",
"(. c #70A154",
"). c #65B551",
"_. c #6AB352",
"`. c #67BA52",
"'. c #68BB53",
"]. c #73C557",
"[. c #77C859",
"{. c #7BCC5B",
"}. c #CF8353",
"|. c #D09550",
" X c #D19A52",
".X c #D2B54E",
"XX c #D3BD4D",
"oX c #80D05D",
"OX c #8BD961",
"+X c #D3C04D",
/* pixels */
"'.'.'.'.'.'.'.'.'.'.'.'.'.'.'.'.'.'.'.'.'.'.'.'.'.'.'.'.'.'.'.'.'.'.'.'.'.'.'.'.`.`.'.'.'.'.`.'.'.'.'.'.`.].`.`.`.`.'.'.'.'.'.'.",
"'.'.'.'.'.'.'.'.'.'.'.'.'.'.'.'.'.'.'.'.'.'.'.'.'.'.'.'.'.'.'.'.'.'.'.'.'.'.'.'.`.`.'.'.'.'.`.`.'.'.'.'.`.`.`.`.`.`.'.'.'.'.'.'.",
"'.'.'.'.'.'.'.'.'.'.'.'.'.'.'.'.'.'.'.'.'.'.'.'.'.'.'.'.'.'.'.'.'.'.'.'.'.'.'.'.`.`.'.'.`.'.'.`.`.`.'.'.`.`.`.`.].`.`.`.'.'.'.'.",
"'.'.'.'.'.'.].'.'.'.'.'.'.'.'.'.'.'.'.'.!.!.!.!.'.'.'.'.'.'.'.'.'.'.'.'.'.'.'.'.].`.'.'.'.'.`.`.).).`.'.).].`.`.`.`.`.`.'.'.'.'.",
"'.'.'.'.].[.oX{.[.'.'.'.'.'.'.'.'.'.'.'.S c c x.'.'.'.'.'.'.'.'.'.'.'.'.'.'.'.'.'.'.'.'.`.`.U.z.C.C.D.`.`.`.`.`.'.'.'.'.'.'.'.'.",
"'.'.'.'.[.OXOXOXoX'.'.'.'.'.'.'.'.'.'.!.t     x '.'.'.'.'.'.'.'.'.'.'.'.'.'.'.'.`.`.'.'.`.`.A.z z z x.`.`.`.`.].'.'.'.'.'.'.'.'.",
"'.'.'.'.[.OXOXOXoX'.'.'.'.'.'.'.'.'.'.`.y     c '.'.'.'.'.'.'.'.`.'.'.'.'.'.'.'.`.`.].`.`.].A.z z x z.`.`.`.`.`.'.'.'.'.'.'.'.'.",
"'.'.'.'.[.oXOXOXoX'.'.'.'.'.'.'.'.'.'.!.t     c '.'.'.'.'.'.'.'.'.'.'.'.'.'.'.'.`.`.`.`.`.`.A.z z z z.`.].`.`.`.'.'.'.'.'.'.`.'.",
"'.'.'.'.[.{.{.oX[.'.'.'.'.'.'.'.'.'.'.!.t     i l.l.l.S.'.'.'.'.'.'.'.'.'.'.'.'.'.'.).G.A.A.x.s.Z S l.A.A.A.U.`.'.'.'.'.'.`.'.'.",
"`.'.'.'.'.'.'.'.'.'.'.'.'.'.'.'.'.'.'.`.t     o w w e C !.'.'.'.'.'.'.'.'.'.'.'.'.'.).S v v l.j.j.k.d.v v v A.!.'.'.'.'.'.'.'.'.",
"'.'.'.'.`.'.'.'.'.'.'.'.'.'.'.'.'.'.'.`.t       o o O C !.'.'.'.'.'.'.'.'.'.'.'.'.'.).D z z d.V.V.V.d.z z z z.`.'.'.'.'.'.'.'.'.",
"'.'.'.'.'.'.'.'.'.'.'.'._._._./._._./.E.t     o % O O C W.!.!.!.'.'.'.'.'.'.'.).).).R.D m j Z N.k.k.d.z z z z.).'.'.'.'.'.'.'.'.",
"'.'.'.'.'.'.'.'.'.'.`./.0.3.3.3.2.3.2.2.*   . u f.f.s.V a h h l.!.'.'.'.'.'.^.D j j m K ) / ) <._ <.M x z z C.!.`.'.'.'.'.'.'.'.",
"'.'.'.'.'.'.'.'.'.'.'./.7.{ [ [ [ [ [ [ ,     p k.k.k.V % o o c !.'.'.'.'.'.R.j - - > / o.#.] [ O.] K x z z x.!.'.'.'.'.'.'.'.'.",
"'.'.'.'.`.'.`.`.'.'.'.~.3.[ [ [ [ [ [ ] @     p k.V.k.V % o o l !.'.'.'.'.'.R.j - - > / O.O.O.[ [ ] K x z z z.`.'.'.'.'.'.'.'.'.",
"'.'.'.'.`.`.`.'.`.)._.L.7.[ [ [ [ [ [ [ ,   X a V.V.k.V w O o B !.`.!.'.!.'.U.j ; ; > / O.O.O.[ O.[ K j g z C.`.'.'.'.'.'.'.'.'.",
"'.`.'.'.'.'.'.'.~.w.w.q.9.%.%.%.%.@.%.@.9 1 1 n V.V.k.f.b b b V S l.v C.D D D M q q 7 o.@.&.@.&.%.@.) P M M I ^.'.'.'.'.'.'.'.'.",
"'.'.'.'.'.'.'.'.P.[ [ +.&.-.:.:.:.-.:.:.@.[ [ ^ k.V.V.k.k.k.V.V % O % - f ; > / { [ +.%.:.:.:.:.:.-.%.{ [ [ q.^.'.'.'.'.'.'.'.'.",
"'.'.'.'.'.'.`.'.P.X.[ { *.>.>.:.:.:.:.:.+.[ [ ^ V.k.V.V.k.V.V.V % . o - ; ; 2 / { [ O.-.:.:.:.:.>.>.%.{ O.[ 0./.'.'.'.'.'.'.'.'.",
"'.'.'.'.'.'.'.'.P.[ [ { *.>.:.:.:.:.:.-.+.[ [ ^ V.k.V.V.V.B.V.V w . & - ; f > / { [ O.-.:.:.:.:.>.>.%.{ O.O.0./.'.'.'.'.'.'.'.'.",
"'.'.'.'.~.J.J.J.e.@.@.%.-.:.:.:.:.:.:.:.%.@.@.1.J J J n.B.V.B.Z w % & 3 4 4 7 ' @.@.%.&.:.:.:.:.>.*.=.@.@.@.5.T J.K.).'.'.'.'.'.",
"'.'.'.'.J.3. . .#.-.-.-.:.:.:.:.:.:.:.:.-.-.-.@.} } } ~ B.k.V.Z f - : / ' ' ] @.-.-.-.:.:.:.:.:.>.>.-.-.-.-.@... .2.~.'.'.'.'.'.",
"'.'.'.'.w.| [ [ @.:.:.:.:.:.>.:.:.:.>.:.:.:.:.%.[ [ { ~ N.k.B.Z f - : ' { [ { -.:.:.:.:.:.:.:.:.>.>.:.:.>.>.%.O.O...I.'.'.'.'.'.",
"`.`._._.w.| { O.@.:.:.:.:.;.:.;.:.;.>.;.>.:.>.%.{ [ [ ~ N.B.N.Z f - : ' { { +.&.:.:.:.>.:.;.:.;.>.-.:.:.>.>.%.O.O.6.~.'.'.'.'.'.",
"K.4.4.4.6.@.&.&.-.>.>.;.y.}.}.}.}.}.}.}.i.:.:.-.=.&.=...Q Q Q n & & ; o.%.&.-.-.:.>.;.t.}.}.}.}.}.}.t.;.:.:.-.&.&.9.(.'.'.'.'.'.",
"T | [ [ @.-.:.:.-.-.-.;. XXX.X.X.XXXXX.Xp.>.:.:.-.:.:.@.[ [ [ 0 # o * $.>.-.:.-.:.:.;.|.XX.XXX.X.X.Xy.:.:.:.:.:.-.r.(.`.`.'.'.'.",
"Y X.[ [ %.-.:.:.:.>.>.;. X+XXX+X+XXX+X.Xa.>.:.:.:.:.:.&.[ [ { 0 # o * $.>.:.:.:.:.:.i.|.+X+XXXXX+X.X}.:.:.:.:.:.>.r.(.`.'.'.'.'.",
"Y X.[ [ %.-.:.:.:.>.-.;. X+XXXXXXXXX+XXXa.:.:.:.:.:.:.&.+.{ { 0 # # * $.>.:.:.:.:.>.;.|.XXXXXX+X+XXX}.:.:.:.:.:.>.r.(.`.'.'.'.'.",
"Y X.[ [ %.-.:.:.:.:.>.;. X+X+XXX+XXXXXXXa.>.:.:.:.:.:.&.O.O.{ 0 # o * $.>.:.:.:.:.>.;. XXXXXXX+XXXXX}.:.:.:.:.:.>.r.(.'.'.'.'.'.",
"Y X.[ [ %.-.:.:.:.:.-.;. X+XXXXX+XXXXXXXa.>.:.:.:.:.>.%.O.[ { 0 # o * $.>.>.:.:.:.:.;.|.XX+XXXXXXX.Xu.;.:.:.:.:.>.r.(.'.'.'.`.'.",
"Y X.[ [ @.-.-.:.:.:.:.;. X+X+X+XXXXXXXXXa.:.:.:.:.:.:.%.+.[ { 0 # o * $.>.:.:.:.:.:.i.|.XX+XXX+X+XXX}.:.:.:.>.>.>.r.(.'.'.'.'.'.",
"Y X.[ [ %.-.:.:.:.:.:.;. X+X+XXX+X+X+X.Xa.>.:.:.:.:.:.&.[ [ O.0 # o * $.>.:.:.:.:.>.;. X+XXXXX+X+X.Xu.;.:.:.:.>.>.r.(.'.'.'.'.'.",
"H.2.2.2.#.%.*.%.*.:.:.;.y.|.|.|.|.|.|.|.p.:.>.-.-.&.&.] W E E 5 # o * $.*.&.-.-.:.:.;.y.|.|.|.|.|.|.t.-.:.:.-.-.=.r.~.'.'.'.'.'.",
"/.I.I.I.Y ] [ [ +.:.:.:.p.p.p.p.p.p.p.p.:.>.>.%.+.+.+.R < = = * O o $ } +.+.@.*.:.:.:.i.p.p.p.p.p.p.;.:.:.:.=.+.+.6.I.'.'.'.'.'.",
"'.'.'.].Y ' ` ` O.:.:.:.>.>.:.:.:.:.:.:.:.:.>.&.[ [ [ 9 $ o o O O o $ ' [ [ O.*.:.:.>.-.>.>.>.>.:.:.:.:.:.:.&.O.[  .~.'.'.'.'.'.",
"'.'.'.'.Y ( ` ] O.:.-.:.:.:.:.:.:.:.:.:.:.:.-.%.] [ ] 9 $ o o o o o * ( [ [ +.&.>.-.:.-.:.:.:.:.:.:.:.:.:.:.@.O.[ 6.~.'.'.'.'.'.",
"'.'.'.'.L.P P P ,.@.@.%.-.:.:.:.:.:.:.-.%.%.%.( 5 5 5 < w . O o o o w N G G ~ ..%.%.%.-.:.:.:.:.:.:.=.%.%.@.8.q.Y T /.'.'.'.'.'.",
"'.'.'.'.T.Z.Z.Z.U O.O.+.*.:.:.:.:.:.>.:.+.{ [ 0 $ o $ $ . O O O o o w g.B.k.H ! +.[ { -.:.:.:.:.>.-.&.{ { { 0.~.^._.'.'.'.'.'.'.",
"'.'.'.'.T.F.Z.Z.U [ O.O.=.:.:.:.:.:.:.-.+.[ [ 9 o o . O . O O . o o w j.V.V.n.! { [ { -.:.:.>.>.>.-.%.{ [ [ 0.^.'.'.'.'.'.'.'.'.",
"'.'.'.'.R.Z.C.C.U [ [ +.-.>.:.:.:.:.:.:.+.[ [ 9 O o O o O O . . o o % j.V.B.m.! { [ { &.:.:.>.>.-.>.&.{ { { 0./.'.`.'.'.'.'.'.'.",
"'.'.'.'.^.G.G.G.U 5.7.7.=.;.*.*.*.-.=.=.6.1.1.M O O O r i h i i u u p j.v.v.n.N E E W { &.&.&.-.=.=.O.W E E L !.'.'.'.'.'.'.'.'.",
"'.'.'.'.'.'.`.'.'.'.'.~.3.O.O.[ [ [ [ X.M.B.B.b . O O c W.`.`.Y.k.k.k.k.v.v.h.u X   + W [ [ { { O.] 8 X   X B !.'.'.'.'.'.'.'.'.",
"'.'.'.'.'.'.'.'.'.'.'.~.3.[ [ [ [ [ [ [ M.V.k.V . O w c !.].`.Q.v.v.v.v.v.v.h.r     + E [ [ [ { [ [ 9       c !.'.'.'.'.'.'.'.'.",
"'.'.'.'.'.'.'.'.'.'.'.~.3.O.[ { [ [ [ [ M.V.V.V O . O c !.`.`.Q.v.v.v.v.V.V.h.r     + E { [ { { [ ] 8 X     c !.].'.'.`.'.'.'.'.",
"'.'.'.'.'.'.'.'.'.'.'.E.,.` W W _ _ _ _ H h.h.b y y y S `.'.'.R.h.h.h.k.V.V.h.r     X 8 W W W _ _ _ 6 w w w l S.U.T.).'.'.'.'.'.",
"'.`.'.'.'.'.'.'.'.'.'.E.n < < < F H H H a u u V S.S.b.R.`.'.'.c.u r u h.V.V.h.r       @ , , n H H H A Z s.s.l y y k T.'.'.'.'.'.",
"'.'.'.'.'.'.'.'.'.'.'.R.y . . r Z V.V.k.u o O l '.'.'.'.'.'.'.l.o   o h.V.v.h.r         X   s k.V.V.V.V.V.V.l .   w U.'.'.'.'.'.",
"'.'.'.'.'.'.'.'.'.'.'.R.i O O e s.k.k.k.u O O c '.'.'.'.'.'.'.l..   o h.k.V.h.r             a k.k.V.B.V.V.V.d .   w U.'.'.'.'.'.",
"'.'.'.'.'.'.'.'.'.'.'.W.l.c C B l d V d l c c c.].`.`.`.'.'.].S.c c c l l l c z g g g z c c l l b b s.V.k.V.d O . w U.'.'.'.'.'.",
"'.'.'.'.'.'.'.'.'.'.'.'.!.W.W.U.k w e r b.`.!.!.`.`.`.`.'.'.`.).W.W.U.r O O w v C.z.C.U.W.).c O o O s k.V.V.d .   w U.'.'.'.'.'.",
"`.'.'.'.'.'.'.'.'.'.'.'.'.'.'.R.h O . O U.`.].`.`.`.].`.`.'.'.'.`.'.W.w     % v C.C.F.!.`.'.S       p k.V.V.l .   w U.'.'.'.'.'.",
"'.'.'.'.'.'.'.'.'.'.'.'.'.'.'.R.h O . O U.`.).`.`.`.`.`.'.'.'.'.'.'.W.w     % v Z.F.F.).'.'.v       p k.V.V.d .   w U.'.'.'.'.'.",
"'.'.'.'.'.'.'.'.'.'.'.'.'.'.'.W.c y y y U.'.`.'.`.`.'.'.`.'.'.'.'.'.!.h w w g z.G.F.G.).'.].l.t r r s f.f.f.l r w h T.'.'.'.'.'.",
"'.'.'.'.'.'.'.'.'.'.'.'.'.'.`.'.!.!.W.W.`.'.'.'.`.].'.'.'.'.'.'.'.'.`.W.W.!.!.).).).`.`.'.'.!.R.R.Y.S O O . c U.R.R.`.'.'.'.'.'.",
"'.'.'.'.'.'.'.'.'.'.'.'.'.'.'.'.`.'.'.'.`.'.'.'.`.`.`.'.'.'.'.'.'.'.'.'.'.'.'.'.'.'.`.`.'.'.'.'.'.!.l.. .   l !.].`.'.'.'.'.'.'.",
"'.'.'.'.).'.'.'.'.'.'.'.`.'.'.'.'.'.'.'.'.'.'.'.`.`.'.'.'.'.'.'.'.'.'.'.'.'.'.'.'.`.`.`.'.'.'.'.'.'.l..     c !.`.`.'.'.'.'.'.'.",
"'.'.'.'.'.'.'.'.'.'.'.'.'.'.'.'.'.'.'.'.`.'.'.'.'.'.'.'.'.'.`.'.'.'.'.'.'.`.'.'.'.'.'.'.'.'.'.'.`.`.x.w w w v !.`.`.`.`.`.`.`.`.",
"'.'.'.'.'.'.'.'.'.'.'.'.'.'.'.'.'.'.'.'.'.'.'.'.'.'.'.'.'.'.'.'.'.'.'.'.'.'.'.'.'.'.'.'.'.'.'.'.`.`.R.x.x.x.U.`.].`.`.`.`.].`.`.",
"'.'.'.'.'.'.'.'.'.'.'.'.'.'.'.'.'.'.'.'.'.'.'.'.'.`.'.'.'.'.'.'.'.'.'.'.'.'.'.'.'.'.'.'.'.`.'.'.`.`.`.`.`.`.'.'.`.`.`.`.`.`.`.].",
"'.'.'.'.`.'.'.'.`.'.'.'.'.`.'.'.'.'.'.'.'.'.'.'.'.'.'.'.'.'.'.'.'.'.'.'.'.'.'.'.'.'.'.`.'.'.'.'.'.'.`.`.].`.'.'.`.`.`.].`.`.`.`.",
"'.'.'.'.'.'.'.'.'.'.'.'.'.'.'.'.'.'.'.'.'.'.'.'.'.'.'.'.'.'.'.'.'.'.'.'.'.'.'.'.'.'.'.'.'.'.'.'.'.'.'.'.'.'.'.'.'.'.'.'.`.`.`.`.",
"'.'.'.`.`.'.'.'.'.'.'.'.'.'.'.'.`.'.'.'.'.'.'.'.'.'.'.'.'.'.'.'.'.'.'.'.'.'.'.'.'.'.'.'.'.'.'.'.'.'.'.'.'.'.'.'.'.`.'.'.`.].`.`.",
"'.'.'.'.'.'.'.'.'.'.`.'.'.'.'.'.'.'.'.'.'.'.'.`.'.'.'.'.'.'.'.'.'.'.'.'.'.'.'.`.`.`.`.].'.'.'.'.'.'.'.`.'.'.'.'.'.'.'.'.'.'.`.'.",
"'.'.'.'.'.'.'.'.'.'.'.'.'.'.'.'.'.'.'.'.'.'.'.'.'.'.'.'.'.'.'.`.'.'.'.'.'.'.'.'.`.`.`.`.'.'.'.'.'.'.'.'.'.'.'.'.'.'.'.'.'.'.'.'."
};
