/* XPM */
static char *_3035e5c11894b57a8a7a1e84cae41fbEeSGtwlnVrmHk42G[] = {
/* columns rows colors chars-per-pixel */
"64 64 187 2 ",
"   c #68BB53",
".  c #67BA52",
"X  c #67BA53",
"o  c #6ABC53",
"O  c #7BCC5A",
"+  c #80D05C",
"@  c #73C557",
"#  c #6BBD54",
"$  c #84D45D",
"%  c #8BD960",
"&  c #78C959",
"*  c #85D45D",
"=  c #8CDA61",
"-  c #79CA59",
";  c #83D35D",
":  c #8AD860",
">  c #69BC53",
",  c #7CCD5B",
"<  c #7CCC5B",
"1  c #72C356",
"2  c #6ABD53",
"3  c #70C256",
"4  c #72C357",
"5  c #6EC155",
"6  c #81D15D",
"7  c #86D55E",
"8  c #6CBE54",
"9  c #86D55F",
"0  c #85D45E",
"q  c #6DBF55",
"w  c #8BD961",
"e  c #6CBF54",
"r  c #6CBF55",
"t  c #8BD860",
"y  c #84D35E",
"u  c #72C457",
"i  c #70C356",
"p  c #6CBC54",
"a  c #77C158",
"s  c #79C159",
"d  c #76C058",
"f  c #6ABB53",
"g  c #77C859",
"h  c #88D75F",
"j  c #6BBD53",
"k  c #62B051",
"l  c #55954C",
"z  c #528F4B",
"x  c #56964C",
"c  c #64B451",
"v  c #62AF50",
"b  c #52924B",
"n  c #4F8B49",
"m  c #53934B",
"M  c #8AD960",
"N  c #8DDB61",
"B  c #6BBE54",
"V  c #6FC155",
"C  c #6FC156",
"Z  c #76C458",
"A  c #7DC85B",
"S  c #7FC95B",
"D  c #7BC65A",
"F  c #63B251",
"G  c #579B4C",
"H  c #54954B",
"J  c #589C4C",
"K  c #65B551",
"L  c #74C657",
"P  c #82D15D",
"I  c #83D25D",
"U  c #83D35E",
"Y  c #70B956",
"T  c #5E9F4F",
"R  c #5D9D4E",
"E  c #5FA24F",
"W  c #66B852",
"Q  c #63B151",
"!  c #62B050",
"~  c #67B952",
"^  c #78CA59",
"/  c #8CDB61",
"(  c #6EB455",
")  c #518E4A",
"_  c #4F8A49",
"`  c #53924B",
"'  c #65B651",
"]  c #68BA53",
"[  c #528F4A",
"{  c #75C758",
"}  c #6FC256",
"|  c #74BF57",
" . c #5DA44E",
".. c #5BA14D",
"X. c #5DA54E",
"o. c #82D25D",
"O. c #89D860",
"+. c #89D75F",
"@. c #77C959",
"#. c #79C95A",
"$. c #66B752",
"%. c #7ACB5A",
"&. c #68BB52",
"*. c #7DCA5A",
"=. c #82CD5D",
"-. c #82CD5C",
";. c #74C457",
":. c #81CD5C",
">. c #83CE5D",
",. c #75C558",
"<. c #6ABD54",
"1. c #67B852",
"2. c #63A751",
"3. c #62A350",
"4. c #65AF51",
"5. c #62A450",
"6. c #64AE51",
"7. c #7FD05C",
"8. c #74C557",
"9. c #80D05D",
"0. c #7ACC5A",
"q. c #65B652",
"w. c #53944B",
"e. c #5BA34E",
"r. c #5CA44E",
"t. c #508D4A",
"y. c #5AA14E",
"u. c #67BB52",
"i. c #6DC055",
"p. c #87D55F",
"a. c #54944B",
"s. c #8BDA60",
"d. c #5BA24E",
"f. c #599D4D",
"g. c #599D4C",
"h. c #60AC4F",
"j. c #60AC50",
"k. c #599E4D",
"l. c #5FAB4F",
"z. c #6DBB55",
"x. c #74BB57",
"c. c #74BC57",
"v. c #74C157",
"b. c #75C657",
"n. c #71C356",
"m. c #5FA84F",
"M. c #56944C",
"N. c #57954C",
"B. c #85D35E",
"V. c #7FCF5C",
"C. c #5CA34E",
"Z. c #508C4A",
"A. c #6DB255",
"S. c #89D65F",
"D. c #8DDA61",
"F. c #88D55F",
"G. c #5DA64E",
"H. c #52904A",
"J. c #53914B",
"K. c #88D65F",
"L. c #65B552",
"P. c #77C758",
"I. c #87D65F",
"U. c #84D45E",
"Y. c #76C658",
"T. c #84D05D",
"R. c #86D25E",
"E. c #7ECC5B",
"W. c #67BB53",
"Q. c #81CE5C",
"!. c #7FCD5C",
"~. c #6EC055",
"^. c #67B352",
"/. c #67AB52",
"(. c #67AA53",
"). c #67AE52",
"_. c #67AD52",
"`. c #67B752",
"'. c #55964C",
"]. c #63B351",
"[. c #5FAA4F",
"{. c #56984C",
"}. c #5AA14D",
"|. c #64B551",
" X c #5AA04D",
".X c #64B351",
"XX c white",
/* pixels */
"                                                                                                                                ",
"                                                                                                                                ",
"                                                                                                                                ",
"                                                                                                                                ",
"                                                                                                                                ",
"                                                                                                                                ",
"                                                                                                                                ",
"                                                                                                                                ",
"              . . . .                                                                                                           ",
"          X           .                                                                                                         ",
"          . o O + + @ .                                                                                                         ",
"          . # $ % % & .                                                                                                         ",
"          . # * = % - .                                                                                                         ",
"          . # ; : : & .                                                                                                         ",
"          . > & , < 1 .                                                                                                         ",
"          .           .                                                                                                         ",
"            X . . . .                                                                                                           ",
"                                                                                        . . . . . .                             ",
"                                                                                      . 2 3 4 1 3 > .                           ",
"                                                                                      . 5 6 7 7 + 8 .                           ",
"                                                                                      . 3 9 = = 0 q .                           ",
"                                                                                      . 3 9 = w 0 e .                           ",
"                                                                                      . 3 9 = w 0 e .                           ",
"                                                                                      . 3 9 = w 0 e .                           ",
"                                    . . . . X                                         . 3 9 = = 0 r .                           ",
"                                  X           X                                       . 3 0 t t y e .                           ",
"                                  . e u u i   .                                       . p a s s d f .                           ",
"                                  . g h : y j .                                         k l z z x c                             ",
"                                  . & : = 7 j .                                         v b n n m c                             ",
"                          . . . . . & M N 7 # .                                         v b n n m c                             ",
"                        .   B V C C Z A S D o .                                         F G H H J K                             ",
"                        .   L P I U Y T R E W                                           W Q ! ! Q ~                             ",
"                        . > ^ % = / ( ) _ ` '                                         X             ]                           ",
"            X . . . .   . > ^ M = = ( [ n m '                                                                                   ",
"          . > { & & } . . > ^ M = = |  ...X.W                                                                                   ",
"          . # o.O.+.@.. . > ^ M = = #.~ $.W .                                                                                   ",
"          . # * = % - . . > ^ M = = %.> &.                                                                                      ",
"          . # $ = % - . . > ^ M = = %.> .                                                                                       ",
"          . # $ = % - . . > ^ M = = %.> .                                                                                       ",
"          . # $ = % - . . > ^ M = = %.> .                                                                                       ",
"          . # $ = % - . . > ^ M = = %.> .                                                                                       ",
"          . # 0 = = - . . > ^ % = / %.> .                               . . . . . . .           . . . . . .                     ",
"          . o *.=.-.;.. .   ;.:.=.>.,.  .                             .   2 q q q <.  .       X   e q q 8 > .                   ",
"            1.2.3.3.4.    . 4.5.3.3.6..                               .   @ + + 7.8.> .       . B , 9.9.0.q .                   ",
"            q.w.n n e.    ~ r.t.n n y.W                               . > ^ = = % - > .     X u.i.p.= = y } .                   ",
"            q.a.n n r.    ~ r.t.n n y.W                               . > ^ = = s.- > . . . X u.i.9 = = y } .                   ",
"            W d.f.g.h.    ~ j.k.f.f.l.~                               .   z.x.x.c.v.L b.n.> . u.i.9 = = y } .                   ",
"            . ' K K W     . W K K K W .                                 ~ m.M.M.N.( B.h V.B . u.i.9 = = y } .                   ",
"          ]           X                                                 W C.n n Z.A.S.D.I e . u.i.9 = = y } .                   ",
"                                                                        W C.n n Z.A.F.= I e . u.i.9 = = y } .                   ",
"                                                                        ~ G.H.H.J.( K.= I e . u.i.9 = = y } .                   ",
"                                                                        . W K K L.P.O.= I e . u.i.9 = = y } .                   ",
"                                                                                  - O.= I e . u.i.9 = = y } .                   ",
"                                                                              .   - : N ; e . u.i.I.= = U.} .                   ",
"                                                                              .   Y.T.R.E.B . W.8 Q.R.R.!.~..                   ",
"                                                                                . ^./.(.).1.  W.1._.(.(.).`.                    ",
"                                                                                . e.) _ '.c   u.].` n n H !                     ",
"                                                                                . e.) _ '.c   u.].` n n H !                     ",
"                                                                                . [.G {.}.q.  u.|.k.{.{. X].                    ",
"                                                                                . $..XF c ~     ~ c F F c ~                     ",
"                                                                                                            X                   ",
"                                                                                                                                ",
"                                                                                                                                ",
"                                                                                                                                "
};
