/* XPM */
static char *cce1f769b96441b5c3c446cfecd5e0f33ECiHdJLiD0Iqzuq[] = {
/* columns rows colors chars-per-pixel */
"57 58 215 2 ",
"   c #010101",
".  c #0A0402",
"X  c #0C0A05",
"o  c #04060C",
"O  c #0D0D0C",
"+  c #1C0600",
"@  c #130D02",
"#  c #1D0E00",
"$  c #110F0A",
"%  c #181302",
"&  c #14120D",
"*  c #19150D",
"=  c #0E0F12",
"-  c #0F1318",
";  c #131412",
":  c #181717",
">  c #1C1A14",
",  c #15191E",
"<  c #210E01",
"1  c #2B1602",
"2  c #221803",
"3  c #371B02",
"4  c #201E14",
"5  c #2A2804",
"6  c #3E2505",
"7  c #3A3503",
"8  c #24221B",
"9  c #2A271B",
"0  c #322C1D",
"q  c #181C22",
"w  c #232221",
"e  c #2C2B22",
"r  c #292A2D",
"t  c #353124",
"y  c #3C3625",
"u  c #373629",
"i  c #31312F",
"p  c #3D3A2B",
"a  c #2A2C31",
"s  c #333434",
"d  c #343539",
"f  c #3A3A38",
"g  c #462B07",
"h  c #4B2904",
"j  c #552C03",
"k  c #423C01",
"l  c #5C3706",
"z  c #643707",
"x  c #693D0D",
"c  c #403927",
"v  c #423D2C",
"b  c #564803",
"n  c #79450A",
"m  c #674318",
"M  c #736C0D",
"N  c #7D7606",
"B  c #48432E",
"V  c #4B4731",
"C  c #4E4A34",
"Z  c #4E4C3C",
"A  c #544C34",
"S  c #554E39",
"D  c #56513A",
"F  c #5C543B",
"G  c #655B3F",
"H  c #3D3D45",
"J  c #454645",
"K  c #4C4D4D",
"L  c #4D4D55",
"P  c #515352",
"I  c #575758",
"U  c #665D41",
"Y  c #6C6244",
"T  c #6B6548",
"R  c #736B4B",
"E  c #62635D",
"W  c #726E58",
"Q  c #7C7653",
"!  c #7B7657",
"~  c #5E6369",
"^  c #656564",
"/  c #6B6C6E",
"(  c #6D6F71",
")  c #757675",
"_  c #864905",
"`  c #93570B",
"'  c #8E5211",
"]  c #945814",
"[  c #9E5E14",
"{  c #AA5D08",
"}  c #A05E11",
"|  c #95740F",
" . c #887E11",
".. c #AD6809",
"X. c #BA690D",
"o. c #A56214",
"O. c #AD6615",
"+. c #AE6915",
"@. c #B16615",
"#. c #B26A15",
"$. c #BB6D15",
"%. c #B56D19",
"&. c #BC6E18",
"*. c #AE7816",
"=. c #BD7117",
"-. c #B57915",
";. c #BD7019",
":. c #C76D0E",
">. c #CB720E",
",. c #D77808",
"<. c #C16F10",
"1. c #C17015",
"2. c #E67C05",
"3. c #F37D00",
"4. c #857E5A",
"5. c #928D09",
"6. c #978C08",
"7. c #9D9411",
"8. c #A59908",
"9. c #AD8816",
"0. c #B68816",
"q. c #AD9216",
"w. c #A99814",
"e. c #BA9B16",
"r. c #B0A710",
"t. c #B4AA14",
"y. c #BBB316",
"u. c #C9910F",
"i. c #F48201",
"p. c #F68B01",
"a. c #EE9703",
"s. c #C9BA05",
"d. c #D6B90A",
"f. c #C0A015",
"g. c #C3BB10",
"h. c #EBA605",
"j. c #F4A700",
"k. c #F7A900",
"l. c #F3B801",
"z. c #D3C606",
"x. c #DAD00D",
"c. c #F5C801",
"v. c #E5D706",
"b. c #EBDD04",
"n. c #F6D801",
"m. c #F4E501",
"M. c #F6EA01",
"N. c #F7F403",
"B. c #89825D",
"V. c #8B8660",
"C. c #938D65",
"Z. c #948E68",
"A. c #9D966A",
"S. c #9F986C",
"D. c #82837B",
"F. c #9A9572",
"G. c #A29A6E",
"H. c #A49D71",
"J. c #A19C79",
"K. c #A7A075",
"L. c #AAA376",
"P. c #ACA679",
"I. c #AFA87A",
"U. c #858582",
"Y. c #8C8C8B",
"T. c #8F9189",
"R. c #92938B",
"E. c #97988F",
"W. c #8C8E96",
"Q. c #979796",
"!. c #9A9B92",
"~. c #AEA982",
"^. c #ABA98F",
"/. c #B2AC86",
"(. c #B8B28B",
"). c #A4A59B",
"_. c #B8B490",
"`. c #A4A3A2",
"'. c #ABACA2",
"]. c #ADADAD",
"[. c #AFB0A7",
"{. c #B3B3B3",
"}. c #BBBCB1",
"|. c #BBBBBB",
" X c #C1BD9D",
".X c #BFC0B5",
"XX c #C9C7A9",
"oX c #C7C9BC",
"OX c #D6D5BD",
"+X c #D8D7BD",
"@X c #BFC0C0",
"#X c #C3C3C2",
"$X c #CCCCC7",
"%X c #D0CFCD",
"&X c #D4D5C9",
"*X c #D3D3D2",
"=X c #DCDED0",
"-X c #DCDCDB",
";X c #E0DFC9",
":X c #DFE1D3",
">X c #E0E0CA",
",X c #E4E5D3",
"<X c #E8E8D7",
"1X c #EBECDB",
"2X c #DFE0E2",
"3X c #E5E5E4",
"4X c #EAEAE5",
"5X c #ECEBEA",
"6X c #F0EEEC",
"7X c #EFF1E2",
"8X c #F3F5E6",
"9X c #F6F6EB",
"0X c #F5F5F5",
"qX c #F7F7F5",
"wX c #68BB53",
/* pixels */
"wXwXwXwXwXwXwXwXwXwXwXwXwXwXwXwXwXwXwXwXwXwXwXwXwXwXwXwXwXwXwXwXwXwXwXwXwXwXwXwXwXwXwXwXwXwXwXwXwXwXwXwXwXwXwXwXwX",
"wXwXwXwXwXwXwXwXwXwXwXwXwXwXwXwXwXwXwXwXwXwXwXwXwXwXwXwXwXwXwXwXwXwXwXwXwXwXwXwXwXwXwXwXwXwXwXwXwXwXwXwXwXwXwXwXwX",
"wXwXwXwXwXwXwXwXwXwXwXwXwXwXwXwXwXwXwXwXwXwXwXwXwXwXwXwXwXwXwXwXwXwXwXwXwXwXwXwXwXwXwXwXwXwXwXwXwXwXwXwXwXwXwXwXwX",
"wXwXwXwXwXwXwXwXwXwXwXwXwXwXwXwXwXwXwXwXwXwXwXwXwXwXwXwXwXwXwXwXwXwXwXwXwXwXwXwXwXwXwXwXwXwXwXwXwXwXwXwXwXwXwXwXwX",
"wXwXwXwXwXwXwXwXwXwXwXwXwXwXwXwXwXwXwXwXwXwXwXwXwXwXwXwXwXwXwXwXwXwXwXwXwXwXwXwXwXwXwXwXwXwXwXwXwXwXwXwXwXwXwXwXwX",
"wXwXwXwXwXwXwXwXwXwXwXwXwXwXwXwXwXwXwXwXwXwXwXwXwXwXwXwXwXwXwXwXwXwXwXwXwXwXwXwXwXwXwXwXwXwXwXwXwXwXwXwXwXwXwXwXwX",
"wXwXwXwXwXwXwXwXwXwXwXwXwXwXwXwXwXwXwXwXwXwXwXwXwXwXwXwXwXwXwXwXwXwXwXwXwXwXwXwXwXwXwXwXwXwXwXwXwXwXwXwXwXwXwXwXwX",
"wXwXwXwXwXwXwXwXwXwXwXwXwXwXwXwXwXwXwXwXwXwXwX6X4X-X*X*X-X5XwXwXwXwXwXwXwXwXwXwXwXwXwXwXwXwXwXwXwXwXwXwXwXwXwXwXwX",
"wXwXwXwXwXwXwXwXwXwXwXwXwXwXwXwXwXwXwX5X|.) d q , ; ; * > e L W.2XwXwXwXwXwXwXwXwXwXwXwXwXwXwXwXwXwXwXwXwXwXwXwXwX",
"wXwXwXwXwXwXwXwXwXwXwXwXwXwXwXwXwX*X) q   . j n ` ..s.s.z.s.6.b 9 ~ *XwXwXwXwXwXwXwXwXwXwXwXwXwXwXwXwXwXwXwXwXwXwX",
"wXwXwXwXwXwXwXwXwXwXwXwXwXwXwX-X^ o   6 ' 2.p.p.p.p.k.M.N.N.N.M.u.3 O / &XwXwXwXwXwXwXwXwXwXwXwXwXwXwXwXwXwXwXwXwX",
"wXwXwXwXwXwXwXwXwXwXwXwXwXwXQ.,   j [ %.2.i.i.i.i.3.3.a.l.c.l.p.i.i._ . o L |.wXwXwXwXwXwXwXwXwXwXwXwXwXwXwXwXwXwX",
"wXwXwXwXwXwXwXwXwXwXwXwXwX^   3 [ ;.#.>.3.i.3.3.i.i.i.3.3.i.3.i.i.i.p.2._ +   L $XwXwXwXwXwXwXwXwXwXwXwXwXwXwXwXwX",
"wXwXwXwXwXwXwXwXwXwXwXwX)   x %.%.@.,.j.c.c.c.j.i.i.i.i.i.i.i.i.i.i.i.i.i.h.5.% o I {.5XwXwXwXwXwXwXwXwXwXwXwXwXwX",
"wXwXwXwXwXwXwXwXwXwXwXR.  l &.@.O.u.n.M.M.M.M.M.l.3.i.i.i.i.i.i.i.i.i.i.3.c.N.b.N @   q I Y.%XwXwXwXwXwXwXwXwXwXwX",
"wXwXwXwXwXwXwXwXwXwX].  6 %.@.O.0.b.M.m.m.m.m.m.n.p.i.i.i.i.i.i.i.i.i.i.i.p.l.n.n.a.{ z <   o d `.wXwXwXwXwXwXwXwX",
"wXwXwXwXwXwXwXwXwX#XO 1 @.#.O.-.v.M.m.m.M.M.M.M.c.i.i.i.i.i.i.i.i.i.i.i.i.i.i.i.3.i.p.p.i.,.` 7   K -XwXwXwXwXwXwX",
"wXwXwXwXwXwXwXwXwXs . o.%.+.@.0.y.b.M.m.b.v.x.d.,.:.<.$.$.$.$.<.$.$.<.>.,.,.2.2.i.i.i.i.i.i.l.N.8.  s 5XwXwXwXwXwX",
"wXwXwXwXwXwXwXwXR.  n =.+.@.@.*.g.b.z.g.t.t.q.+.O.O.O.+.@.%.%.%.%.-.9.*.O.O.@.@.$.>.>.,.2.2.j.M.N.r.  Y.wXwXwXwXwX",
"wXwXwXwXwXwXwX%Xo 7 0.O.@.@.@.@.-.0.q.q.9.*.@.@.%.&.=.%.+.} ] ` | 7.8.t.0.&.%.@.O.O.O.+.@.#.<.d.M.N.k r 6XwXwXwXwX",
"wXwXwXwXwXwX5Xi X r.0.@.@.@.@.@.@.@.@.O.@.#.;.;.[ n h 3 1 @ $ & & @ % 5 g x ` O.=.%.#.@.@.@.O.+.s.M.8.  |.wXwXwXwX",
"wXwXwXwXwX-XH    .y.9.@.@.@.@.@.@.+.%.&.%.` m 0 & & e p V D D v F D V v e * X < h _ O.&.@.+.@.@.9.g.v.X / wXwXwXwX",
"wXwXwXwX#X, .  .y.w.@.@.@.@.@.+.#.=.o.z 3 * 8 y S v 0 y 9 8 > . 9 c A V C T S p > . # z O.%.@.@.#.q.x.k H wXwXwXwX",
"wXwXwX#X= % 7.y.q.%.@.@.@.@.@.<.O.z % > e > 9 > ; > 4 e v B Z J e > &   O p G A S F t o # n %.@.@.O.u.l a 9XwXwXwX",
"wXwX3Xq # q.y.9.@.@.@.@.@.%.%.n @ ; 8 > & 4 v F R V.H.L.P.P.P.L.L.H.Z.Q C * X   V Y Y F e   z &.+.+.&.j a 9XwXwXwX",
"wXwXY.  ] =.*.@.@.@.@.O.%.[ 1 ; v & O V ! G.P.P.P.L.H.H.H.H.H.H.H.H.K.L.P.A.R e O 0 > t Y p   { %.+.;.3 J wXwXwXwX",
"wXwXJ # %.@.@.@.@.@.O.1.{ @ t Y 8 8 C.I.L.H.G.G.H.H.H.H.H.H.H.H.H.H.H.H.H.P.I.L.0 $ S F U U & z %.@.O.  ( wXwXwXwX",
"wX9X, h ;.+.@.@.@.O.%.X.1 8 y t ; J.L.G.H.L.L.L.H.H.H.H.H.H.G.G.G.G.G.G.G.! C.I.C.O y V B U * h %.%.n   #XwXwXwXwX",
"wX4X- l ;.O.@.O.-.e.| < p Y t   D P.G.H.L.! u U H.G.G.G.G.L.~.P.~.~.~.(.Z   * R P.V   8 S A   n %.%.# d wXwXwXwXwX",
"wX3X- z &.+.@.$.d.r.2 t A t * * C.L.H.H.C.$     ! XXXX+X1X<X1X8X1X<X,X8XE     W XXF.X t v   3 #.&.g   |.wXwXwXwXwX",
"wX5X, j ;.O.@.X.f.N > G v 8 X B.L.H.S.P.XXf     !.wXwX&XR.9XwX'.8X!.Y.wX,XY.E.8X8X8XK   . 6 -.-.g   Y.wXwXwXwXwXwX",
"wXwXK # %.@.@.@.e.5.8 G R 9 V I.H.S._.<XwX,XE.).8X8X8X=Xw s J w P f .X9X8XwXwX8X8XwXoX  h f.7.5   U.wXwXwXwXwXwXwX",
"wXwX{.  x 1.O.$.%.e.b 8 V * C.L.G. X8X8X8X8XwXwX8X8X8X8X,XD.T.<X'.oX9X8X8X8X8X8X8X8XwXU.  g @ , `.wXwXwXwXwXwXwXwX",
"wXwXwXI   ] -.@.O.@.#.x . V I.A./.8X8X8X8X8X8X8X8X8X8X8X8XwXwX8XwX9X8X8X8X8X8X8X8X8X8X9XD.  , -XwXwXwXwXwXwXwXwXwX",
"wXwXwX5Xd   M e.0.%.%.o.* V.L.H.>X8X8X8X8X8X8X8X8X8X8X8X8X8X8X8X8X8X8X8X8X8X8X8X8X8X8X8XwXR.. I 5XwXwXwXwXwXwXwXwX",
"wXwXwXwX3XK   5 M w.0.g u P.A.XX9X8X8X8X8X8X8X8X8X8X8X8X8X8X8X8X8X8X8X8X8X8X8X8X8X8X8X8X8XwX!.  K wXwXwXwXwXwXwXwX",
"wXwXwXwXwXwX`.a     2 X V.K.L.1X8X8X8X8X8X8X8X8X8X8X8X8X8X8X8X8X8X8X8X8X8X8X8X8X8X8X8X8X8X8XwX).  U.wXwXwXwXwXwXwX",
"wXwXwXwXwXwXwXwX|.Y., t P.A._.8X8X8X8X8X8X8X8X8X8X8X8X8X8X8X8X8X8X8X8X8X8X8X8X8X8X8X8X8X8X8X7XwX^   *XwXwXwXwXwXwX",
"wXwXwXwXwXwXwXwXwX9Xw Q P.S.OX9X8X8X8X8X8X8X8X8X8X8X8X8X8X8X8X8X8X8X8X8X8X8X8X8X8X8X8X8X8X8X8X8X:XX / wXwXwXwXwXwX",
"wXwXwXwXwXwXwXwXwX].$ S.H.K.,X8X8X8X8X8X8X8X8X8X8X8X8X8X8X8X8X8X8X8X8X8X8X8X8X8X8X8X8X8X8X8X8X8X9XK a wXwXwXwXwXwX",
"wXwXwXwXwXwXwXwXwX) > L.G.P.1X8X8X8X8X8X8X8X8X8X8X8X8X8X8X8X8X8X8X8X8X8X8X8X8X8X8X8X8X8X8X8X8X7XwXD.O 3XwXwXwXwXwX",
"wXwXwXwXwXwXwXwXwXI t I.S.~.8X8X8X8X8X8X8X8X8X8X8X8X8X8X8X8X8X8X8X8X8X8X8X8X8X8X8X8X8X8X8X8X8X8XwX) O 5XwXwXwXwXwX",
"wXwXwXwXwXwXwXwXwXJ v I.G.~.7X8X8X8X8X8X8X8X8X8X8X8X8X8X8X8X8X8X8X8X8X8X8X8X8X8X8X8X8X8X8X8X8X8X9XP a wXwXwXwXwXwX",
"wXwXwXwXwXwXwXwXwXd v I.G.H.,X8X8X8X8X8X8X8X8X8X8X8X8X8X8X8X8X8X8X8X8X8X8X8X8X8X8X8X8X8X8X8X8X8X8Xw P wXwXwXwXwXwX",
"wXwXwXwXwXwXwXwXwXd t P.H.S.XX9X8X8X8X8X8X8X8X8X8X8X8X8X8X8X8X8X8X8X8X8X8X8X8X8X8X8X8X8X8X8X8X8X=XO U.wXwXwXwXwXwX",
"wXwXwXwXwXwXwXwXwXK * L.H.H.K.;X9X8X8X8X8X8X8X8X8X8X8X8X8X8X8X8X8X8X8X8X8X8X8X8X8X8X8X8X8X8X7XwXR.  $XwXwXwXwXwXwX",
"wXwXwXwXwXwXwXwXwXY.  V.L.H.G.L.+X9X8X8X8X8X8X8X8X8X8X8X8X8X8X8X8X8X8X8X8X8X8X8X8X8X8X8X8X8X8X8Xe f wXwXwXwXwXwXwX",
"wXwXwXwXwXwXwXwXwX3X; e L.H.H.G.G. X<X8X8X8X8X8X8X8X8X8X8X8X8X8X8X8X8X8X8X8X8X8X8X8X8X8X8X8XwX!.  ].wXwXwXwXwXwXwX",
"wXwXwXwXwXwXwXwXwXwX`.  u H.P.H.H.A.K. X=X8X8X8X8X8X8X8X8X8X8X8X8X8X8X8X8X8X8X8X8X8X8X8XwX8XD.  K wXwXwXwXwXwXwXwX",
"wXwXwXwXwXwXwXwXwXwXwX!.  > ! H.P.I.P.K.L.(.+X<X8X9X9X9X9X9X9X9X9X9X9X9X9X9X9X9X9XwXwX7X[.s   / 5XwXwXwXwXwXwXwXwX",
"wXwXwXwXwXwXwXwXwXwXwXwX|.s   X u S T W Q Q Q 4.^.&X&X&X&X&XoXoX$X&X&X&X&X&X&X&X&X}.) 8   r ].wXwXwXwXwXwXwXwXwXwX",
"wXwXwXwXwXwXwXwXwXwXwXwXwXwX{.^ s :             . O O O O O . . . O O O O O O O X   O K ].wXwXwXwXwXwXwXwXwXwXwXwX",
"wXwXwXwXwXwXwXwXwXwXwXwXwXwXwXwXwX3X*X#X#X|.#X@X|.|.{.|.|.|.|.|.|.{.{.{.{.{.{.{.{.|.-XwXwXwXwXwXwXwXwXwXwXwXwXwXwX",
"wXwXwXwXwXwXwXwXwXwXwXwXwXwXwXwXwXwXwXwXwXwXwXwXwXwXwXwXwXwXwXwXwXwXwXwXwXwXwXwXwXwXwXwXwXwXwXwXwXwXwXwXwXwXwXwXwX",
"wXwXwXwXwXwXwXwXwXwXwXwXwXwXwXwXwXwXwXwXwXwXwXwXwXwXwXwXwXwXwXwXwXwXwXwXwXwXwXwXwXwXwXwXwXwXwXwXwXwXwXwXwXwXwXwXwX",
"wXwXwXwXwXwXwXwXwXwXwXwXwXwXwXwXwXwXwXwXwXwXwXwXwXwXwXwXwXwXwXwXwXwXwXwXwXwXwXwXwXwXwXwXwXwXwXwXwXwXwXwXwXwXwXwXwX",
"wXwXwXwXwXwXwXwXwXwXwXwXwXwXwXwXwXwXwXwXwXwXwXwXwXwXwXwXwXwXwXwXwXwXwXwXwXwXwXwXwXwXwXwXwXwXwXwXwXwXwXwXwXwXwXwXwX",
"wXwXwXwXwXwXwXwXwXwXwXwXwXwXwXwXwXwXwXwXwXwXwXwXwXwXwXwXwXwXwXwXwXwXwXwXwXwXwXwXwXwXwXwXwXwXwXwXwXwXwXwXwXwXwXwXwX"
};
