/* XPM */
static char *_1fc83195941458e9089aced72034cb1j95LTeHMlbTJuIT2[] = {
/* columns rows colors chars-per-pixel */
"64 64 153 2 ",
"   c #1A261F",
".  c #172E1B",
"X  c #182F1C",
"o  c #1A321E",
"O  c #1C2A21",
"+  c #1C3221",
"@  c #1E3A22",
"#  c #202B27",
"$  c #272A2F",
"%  c #203727",
"&  c #213C25",
"*  c #24372B",
"=  c #263C2E",
"-  c #2B2D33",
";  c #273430",
":  c #2C3234",
">  c #273E30",
",  c #2C3E34",
"<  c #313437",
"1  c #313D36",
"2  c #323638",
"3  c #363A3B",
"4  c #3A3D3E",
"5  c #224126",
"6  c #244429",
"7  c #28462D",
"8  c #26492B",
"9  c #294D2E",
"0  c #2A512F",
"q  c #32572F",
"w  c #2B4233",
"e  c #2C4A32",
"r  c #384437",
"t  c #354936",
"y  c #3A443D",
"u  c #364C3A",
"i  c #3B4E3B",
"p  c #2D5333",
"a  c #2F5932",
"s  c #315A37",
"d  c #32523B",
"f  c #3C563C",
"g  c #345D3A",
"h  c #3D5A3C",
"j  c #376634",
"k  c #396137",
"l  c #3C6B36",
"z  c #35643B",
"x  c #3A643A",
"c  c #37683C",
"v  c #396B3E",
"b  c #3E733B",
"n  c #417738",
"m  c #457D3C",
"M  c #375642",
"N  c #395643",
"B  c #375F40",
"V  c #3A5A44",
"C  c #376040",
"Z  c #3D6445",
"A  c #3B6D41",
"S  c #3D7343",
"D  c #3F7844",
"F  c #434745",
"G  c #454A46",
"H  c #415242",
"J  c #425B41",
"K  c #485E46",
"L  c #4D514C",
"P  c #4C5B4A",
"I  c #565C50",
"U  c #426443",
"Y  c #436B45",
"T  c #476B49",
"R  c #4A6E4A",
"E  c #457446",
"W  c #487242",
"Q  c #417A46",
"!  c #4D7C45",
"~  c #44754A",
"^  c #457B49",
"/  c #4A7D49",
"(  c #556450",
")  c #5C6456",
"_  c #5D6957",
"`  c #646B5C",
"'  c #686F5F",
"]  c #69725E",
"[  c #6C7361",
"{  c #727B66",
"}  c #757D68",
"|  c #46803C",
" . c #49833F",
".. c #468747",
"X. c #4C8343",
"o. c #4B8A43",
"O. c #46844B",
"+. c #4A834B",
"@. c #478948",
"#. c #4B8B4B",
"$. c #508647",
"%. c #528D47",
"&. c #518D4A",
"*. c #4F9147",
"=. c #4E944F",
"-. c #569C47",
";. c #55934A",
":. c #58974A",
">. c #579D4B",
",. c #589C4D",
"<. c #4B8D52",
"1. c #4F9456",
"2. c #509557",
"3. c #519B54",
"4. c #519758",
"5. c #539B59",
"6. c #5DA64D",
"7. c #5EAA4E",
"8. c #55A156",
"9. c #5EA650",
"0. c #56A25B",
"q. c #58A65D",
"w. c #5AAA5D",
"e. c #5DB25E",
"r. c #61AE4F",
"t. c #62B14F",
"y. c #60A150",
"u. c #61AE50",
"i. c #64B451",
"p. c #67BA52",
"a. c #68BB53",
"s. c #6CB459",
"d. c #778069",
"f. c #7B846C",
"g. c #5CAE60",
"h. c #5FB361",
"j. c #60B662",
"k. c #63BC64",
"l. c #6EC155",
"z. c #72C457",
"x. c #76C558",
"c. c #7AC459",
"v. c #77C959",
"b. c #7ECB5B",
"n. c #66C166",
"m. c #67C468",
"M. c #69C769",
"N. c #69C869",
"B. c #7DD264",
"V. c #82CE5D",
"C. c #84D35E",
"Z. c #88D75F",
"A. c #8CDA61",
/* pixels */
"a.a.a.a.a.a.a.a.a.a.a.a.a.a.a.a.a.a.a.a.a.a.a.a.a.a.a.a.a.a.a.a.a.a.a.a.a.a.a.a.a.a.a.a.a.a.a.a.a.a.a.a.a.a.a.a.a.a.a.a.a.a.a.a.",
"p.p.p.p.a.a.a.a.a.a.a.a.a.a.p.a.a.a.a.a.a.a.a.a.a.a.a.a.a.p.a.a.a.a.a.a.a.a.a.a.a.p.a.a.a.a.a.a.a.a.a.a.a.a.a.a.a.a.a.a.a.a.a.a.",
"a.a.a.l.a.a.a.a.a.a.a.a.a.a.a.a.a.i.u.u.u.u.u.9.7.6.7.7.6.7.9.u.u.u.u.y.7.7.7.7.7.7.7.7.r.u.u.i.i.a.a.a.a.a.a.a.a.a.a.a.a.a.a.a.",
"a.l.b.C.b.z.a.a.a.a.a.a.a.a.a.a.i.u.+.^ ^ E n h x x x x x c E ~ ^ E W c x x x x x x v ~ ^ E / 6.a.a.a.a.a.a.a.a.a.a.a.a.a.a.a.a.",
"a.z.A.A.Z.v.a.a.a.a.a.a.a.a.a.a.p.6.Z N V M w = = = = ; = > e V V V u w = = = = = = w M V N Z ;.p.a.a.a.a.a.a.a.a.a.a.a.a.a.a.a.",
"a.z.A.A.Z.v.a.a.a.a.a.a.a.a.a.a.p.6.Y N V V e = = = = = = > d V V V d w = = = = = ; w N V N Z 2.p.a.a.a.a.a.a.a.a.a.a.a.a.a.a.a.",
"a.z.Z.Z.Z.v.p.a.a.a.a.i.p.i.i.i.i.8.Z V V M e w = = w > = > u V V V d w = = = = > > w N V N C <.i.i.i.t.a.a.a.a.a.a.p.a.a.a.a.a.",
"a.l.z.z.l.l.a.a.a.9./ E ^ E k q a a C C C C g p a d a s s s g C C C g s d s s s s s p = & & 6 d x x x X.t.a.a.a.a.a.a.a.a.a.a.a.",
"l.p.a.a.a.p.a.a.a.,.Z V V N = O O * B c z z z z z z z z z z z z z z z z z z z z z z a + . . + @ > = = v t.a.a.a.a.a.a.a.a.a.a.a.",
"p.p.p.p.p.p.a.a.a.:.Z V V N * O O @ s C z z z z z z z z z z z z z z z z z z z z z z a o . . . @ = = = x t.a.a.a.p.a.a.a.a.a.p.a.",
"p.p.a.a.a.a.a.a.a.,.Z V V N * O O @ s c z z c A c c c z z z z c c c c z C c c v c c z + + . + @ = > = l r.t.t.i.p.a.a.a.a.a.a.a.",
"a.a.a.a.a.a.a.p.a.>.A B C g p e 9 0 z C z c O.3.3.3.#.z z c O.3.3.3.1.O.O.^ O.1.3.3.=.0 9 9 9 0 d s u s l l l :.a.a.a.a.a.a.a.a.",
"a.a.a.a.p.p.l.p.p.8.b z z z z z c z z z z v 8.m.N.N.w.c z A 1.M.M.M.h.0.2.2.4.h.N.N.h.A c c z c z z z p O O O m a.p.a.a.a.a.a.a.",
"a.a.a.a.p.p.p.p.p.>.A z z z c z z c z z z v q.m.N.N.w.c z c 3.N.M.M.h.5.2.2.2.h.N.m.h.A z c c c z z c e O O O m a.a.a.a.a.p.a.a.",
"a.a.a.a.p.7.6.6.6.o.v z z z A S S S S S S D q.m.N.N.w.z z A 1.h.h.h.h.g.0.0.0.g.h.h.g.D A S S S S S S s % + O  .a.a.a.a.a.p.a.a.",
"a.a.a.a.t.*.c v b v z z z z O.1.<.<.<.<.=.1.h.m.N.N.q.c z z O.5.0.4.w.h.n.n.n.g.5.5.5.1.<.<.<.<.<.<.<.Q 8 5 5 X.a.a.a.a.a.a.a.a.",
"a.a.a.p.7.o.z z c z z z z c O.4.4.4.4.1.4.4.h.N.M.N.w.z z z O.2.1.2.g.n.N.N.m.0.2.1.1.2.1.4.4.1.4.2.2.Q 9 6 6  .l.l.l.p.p.p.p.l.",
"a.a.a.a.p.#.z z c c z z z c O.1.1.1.1.1.1.4.h.N.M.M.w.z z c ^ 2.1.1.5.k.M.m.m.g.2.2.2.1.1.1.1.1.2.2.2.Q 8 6 6  .l.p.p.p.p.p.p.p.",
"a.a.a.a.t...s s s s s s s z <.0.0.4.<.<.<.<.g.h.k.k.g.^ D O.<.8.0.0.g.h.h.h.h.4.<.O.<.0.q.0.0.1.1.1.1.S 8 5 @ ..p.l.i.i.p.p.p.p.",
"a.a.a.a.t.| 8 9 8 8 9 8 8 0 3.n.k.g.D A A A <.5.5.4.0.h.h.k.k.k.k.k.h.0.0.0.5.D A A D k.k.n.h.8.@.@.#.c o X o | e.l.p.l.p.p.l.p.",
"a.a.a.a.t.b 8 6 8 5 5 6 6 0 8.N.m.e.A z z c O.1.2.2.0.m.M.M.m.N.N.M.h.5.2.1.1.S z z S k.M.M.n.8.@.@.@.c o X . m a.a.a.a.p.p.p.p.",
"a.a.a.a.t.m 6 6 6 5 6 6 6 9 8.N.m.e.A z z C O.1.2.4.g.k.M.M.M.N.N.N.h.5.2.2.1.A z z S k.M.M.n.8.@...@.j o X . | a.a.a.a.l.p.p.p.",
"a.i.i.7.7.b 5 5 5 6 9 9 9 a 8.N.m.h.D A A A <.4.5.5.g.N.M.M.N.m.M.M.k.g.4.5.4.D v c D h.m.n.h.5.@...@.v 6 @ @ | 7.e.7.p.p.a.l.p.",
"p.9.Y Y c 0 o o X 0 ^ #.O.<.h.N.m.k.1.<.<.<.g.k.k.k.k.N.M.M.N.m.M.M.m.k.n.k.n.4.<.<.1.0.5.5.0.2.1.1.1.<.@.@.O.~ A Y A ..t.a.p.p.",
"i.,.V V M = . . . 0 <.1.2.4.k.N.m.k.8.1.2.4.h.M.N.N.M.M.M.N.m.N.M.M.M.M.M.M.M.g.4.2.2.1.1.1.1.2.2.2.2.2.4.4.4.~ V N V E r.a.a.a.",
"a.,.V V M 7 o o . 0 <.4.4.4.j.m.m.k.5.1.4.5.h.N.M.M.M.M.M.N.N.N.M.M.M.M.M.M.m.5.4.5.4.2.1.2.2.2.2.2.2.2.2.2.2.~ V V V E u.a.a.a.",
"a.,.V V N d 9 7 8 c 8.g.g.g.w.g.g.g.g.g.g.g.k.M.M.M.M.M.N.M.M.M.M.M.M.M.M.M.M.h.g.g.g.4.1.2.2.2.2.2.2.2.2.2.2.D g B C ! u.a.a.a.",
"a.,.V V V B z z z O.k.N.M.m.q.1.1.0.m.m.N.N.N.m.M.M.M.N.M.M.N.N.M.M.M.M.M.M.M.M.N.N.h.5.2.2.2.2.2.2.2.2.2.2.2.D z z c Q r.a.a.a.",
"a.,.V V V C z z z O.k.m.M.m.q.1.1.0.k.N.N.N.N.N.M.M.M.M.M.M.M.M.M.M.M.M.M.M.M.M.M.M.k.5.2.2.2.2.2.2.2.2.1.4.1.^ z z l Q r.a.p.a.",
"i.,.V V V C z c z O.k.m.m.n.q.2.1.0.k.N.N.N.m.N.M.N.M.M.M.N.N.M.M.M.M.N.M.M.M.M.M.M.k.5.2.2.2.2.2.2.2.2.4.1.4.D z z z Q r.a.a.a.",
"p.,.V V V B c z z Q q.h.h.h.w.g.g.h.m.N.N.N.N.N.M.M.M.M.M.M.N.N.N.M.M.M.M.M.M.M.M.M.m.g.g.g.g.5.2.2.2.2.4.4.1.S p p p b 7.a.a.a.",
"i.3.Z V V C z z z S 1.1.1.4.h.m.m.m.m.N.N.m.N.m.M.M.M.N.M.M.M.M.M.M.M.M.M.M.M.M.M.M.m.m.m.k.h.g.2.2.2.2.1.1.1.c 6 6 8 j 7.a.a.a.",
"p.,.V V V B c c z S 1.2.1.4.n.N.M.M.M.M.M.M.M.M.M.N.M.M.M.M.M.M.M.M.M.M.M.N.M.M.M.M.M.M.N.M.n.w.2.2.2.2.2.2.2.z 6 5 6 j 7.a.a.a.",
"p.,.V N V z j j z S <.1.1.5.h.N.M.M.M.M.M.M.M.M.N.M.M.M.M.M.M.M.M.M.M.M.M.M.M.M.M.M.M.M.M.N.m.w.2.2.2.2.2.2.2.z 6 6 6 j 7.p.a.a.",
"p.9.+./ ~ z q 0 0 A <.1.4.4.h.N.M.m.h.h.h.h.n.m.M.N.M.M.M.M.M.M.N.M.M.N.M.M.M.k.h.h.h.h.h.h.h.q.2.2.2.2.2.2.2.A e e e v 7.a.a.a.",
"a.a.p.p.t.l . . . 0 <.4.1.4.h.N.N.h.0.1.1.5.h.m.M.M.M.M.M.M.M.M.M.M.M.M.M.M.k.g.4.1.4.1.4.1.2.1.2.2.2.2.2.2.2.~ V V V Q i.a.a.a.",
"a.a.a.a.t.l . . . 0 <.1.1.1.h.N.M.h.0.2.1.4.h.m.N.M.M.M.M.M.M.m.M.M.M.N.M.M.m.g.1.1.1.1.1.1.1.1.1.1.1.4.1.4.1.~ V V V E 7.a.a.a.",
"a.a.p.a.t.b 5 @ @ a O.<.1.1.h.N.M.k.5.1.1.5.h.n.n.k.n.n.n.n.n.n.n.n.n.h.k.k.h.2.1.1.1.1.5.5.5.5.4.4.5.4.<.<.<.~ Z Z Z / i.a.a.a.",
"a.a.a.a.p.7.-.6.-.o.S S v D w.N.N.h.0.1.1.1.3.=.=.=.3.5.0.5.0.0.5.0.1.O.D D D S A A D h.k.k.h.n.k.k.k.1.s p p o.9.9.9.7.i.a.a.a.",
"a.a.a.p.p.p.p.p.l.8.v z z v w.M.N.h.5.1.1.1.@.....O.#.1.1.1.1.1.1.1.O.A z z C C z z D n.N.M.N.N.N.M.N.4.0 6 6  .l.a.a.a.a.p.a.a.",
"a.a.a.a.a.a.a.a.a.8.b z z c e.N.N.n.5.1.1.1.#.@.@.O.@.2.2.2.1.1.2.2.O.A z z z z z z S n.N.N.N.N.M.N.N.3.0 6 6 o.a.a.a.a.a.a.a.a.",
"a.a.a.a.a.a.a.a.p.-.c z z v 8.h.h.h.1.<.1.<.#.#.*.*.=.<.<.<.1.0.4.5.<.S A A A A A A D e.k.h.h.n.k.k.k.#.9 5 = X.a.a.a.a.a.a.a.a.",
"a.a.a.a.a.a.a.p.p.6.v z z c D ..O.O.S S S D 8.e.e.e.8.S S D 1.h.h.h.q.<.O.O.#.5.q.w.8.#.O.O.O.O.O.O.O.A > ; ; X.a.a.a.a.a.a.a.a.",
"a.a.a.a.a.a.a.a.p.>.b z z z z z z z z z z A 8.m.N.N.w.z z A 1.N.N.M.h.5.1.2.2.k.N.M.h.A s z z z j z x d : - - ! a.a.a.a.a.a.a.a.",
"a.a.a.a.a.a.a.a.a.8.b z z z z z z z z z z A 8.m.N.N.w.z z c 3.N.N.N.h.0.1.1.2.k.m.N.h.v z c z z z z z d : - - ! l.a.p.a.a.a.a.a.",
"a.a.a.a.a.a.a.a.a.>.v z z z z z z z z c z A 8.m.m.m.w.z z c 3.N.M.M.h.5.1.2.2.h.m.m.h.A z z z z z z z d : < - $.p.a.a.a.a.p.p.a.",
"a.a.a.a.a.a.a.a.a.;.M w , w , = @ e s c z c D O.O.O.Q z z z S O.O.O.O.S S S S O...@.D 5 5 5 5 7 w e 7 z 2.;.5.a.b.b.b.v.a.p.a.a.",
"a.a.a.a.a.a.a.a.a.$.1 - - - O O O @ s z z z z c c z z z z z z z z z z z z z z z z z a @ . . X @ = 7 ; A k.N.M.B.A.A.Z.B.l.p.p.p.",
"a.a.a.i.a.a.a.a.a.%.3 - - - #     @ q x x z z z z z z z l z z z z z z z z z z z z c s o . . X % > = = A k.M.M.V.A.A.A.V.a.a.a.a.",
"a.a.a.a.i.6.;.%.;.! H F G F y r r i U T Y Y R R R R T Y Y T T R R R R R R R R R R W U u t t r H H H N T 2.5.5.s.c.c.c.c.z.z.z.z.",
"a.a.a.a.r.W : : - G } d.f.f.f.f.f.} ] ] ] ] } f.d.f.d.{ ] { d.f.f.f.f.f.f.f.f.f.f.f.f.f.f.d.f.} f.f.} ` 2 : : U &.&.&.y.V.A.A.A.",
"a.a.a.a.r.W - - - G } f.f.f.f.f.f.d.] ] ] ] } d.f.f.d.{ { { d.f.f.f.f.f.f.f.f.f.f.f.f.f.f.f.f.f.f.f.} ` < - - U &.&.&.y.V.A.A.A.",
"a.a.a.a.u.Y - - - G } f.f.f.f.f.f.} [ ] ' ] { f.f.f.} { { { d.f.f.f.f.f.} f.f.f.f.f.f.f.f.f.f.f.f.f.f.` < - - x &.#.&.y.V.A.A.A.",
"a.a.a.a.t.X.h f h K _ ` ` ` } f.f.{ ) I I I ` ` ` ' ` ) ) ) ` ` ` ` ` ` ` ` ` ` ` ` [ } f.f.} { ` ` ` ( h f h ! ,.:.:.s.V.A.A.A.",
"a.a.a.a.a.t.r.6.r.$.y 3 3 y ' f.f.' y < < < 3 3 3 3 3 3 3 3 3 3 3 4 3 3 3 3 3 3 3 3 F } f.f.} I 4 3 3 K -.r.y.r.i.i.i.a.A.A.A.A.",
"a.a.a.a.a.a.a.a.a.%.1 - - < ` f.f.' 3 $ $ $ $ - - - - : - - - - - - - - - - < - - - 4 } f.f.{ L - - - h t.a.a.a.a.a.a.a.A.A.A.A.",
"p.p.p.p.a.a.p.a.a.%.1 - - < ` f.f.' 2 $ $ $ - - - - - - - - - - - - - - - - - - - - 4 } f.f.} L - - - h i.a.a.a.a.i.a.x.A.A.A.A.",
"p.p.l.l.l.a.a.a.a.;.h u u i ) [ ] ` i u r u u u u u u t u u u u u y u u u u u y u u H ` [ [ ` P u u u W 7.a.a.a.a.a.a.a.c.b.V.b.",
"a.z.Z.Z.C.z.a.a.a.t.r.6.y.,.J 3 3 f -.7.6.7.6.r.y.r.y.r.y.r.6.6.6.r.6.6.6.7.y.7.y.6.;.y 3 3 y ! 6.r.6.u.a.a.a.a.a.a.a.u.,.:.:.2.",
"p.z.Z.Z.Z.b.a.a.a.a.a.a.a.i.f - : u 6.a.a.a.p.a.p.p.p.p.p.p.a.a.a.a.a.a.p.a.a.a.a.p.6.1 - - 1 $.i.a.a.a.a.a.a.a.a.a.a.u.;.#.&.$.",
"a.z.Z.A.Z.b.a.a.a.a.a.a.a.t.h - : u y.a.a.p.a.a.p.a.a.a.a.a.a.a.a.a.a.a.a.a.p.a.a.p.6.1 - - 1 ! a.a.a.a.a.a.a.a.a.a.a.7.;.#.$.$.",
"a.l.z.x.z.a.a.a.a.a.a.a.a.p.:.$.$.;.t.l.a.a.a.a.p.p.a.a.a.a.a.a.a.a.a.a.a.a.a.a.a.a.r.%.$.$.%.6.a.a.a.a.a.a.a.a.a.a.a.i.r.6.7.7.",
"a.p.p.p.p.p.a.p.a.a.a.a.a.a.a.a.a.a.a.p.a.a.a.a.a.p.a.a.a.a.a.a.a.a.a.a.a.a.a.a.a.a.a.a.a.a.a.a.a.a.a.a.a.a.a.a.a.a.a.a.a.a.a.a.",
"a.p.p.p.p.p.a.a.a.a.a.a.a.a.a.a.a.a.a.a.a.a.a.a.a.a.a.a.a.a.a.a.a.a.a.a.a.a.a.a.a.a.a.a.a.a.a.a.a.a.a.a.a.a.a.a.a.a.a.a.a.a.a.a."
};
